<svg width="438" height="446" viewBox="0 0 438 446" fill="none" xmlns="http://www.w3.org/2000/svg">
<path d="M260.304 255.464C260.383 255.533 260.46 255.606 260.532 255.683L261.182 256.331L263.693 258.89L273.166 268.652L306.733 303.474H306.345L344.42 261.514L344.682 261.229L344.899 261.547L347.673 265.566L376.48 307.296L376.08 307.23L403.769 285.948L403.929 285.827L404.066 285.97L425.203 309.031L430.91 315.324L432.394 316.971C432.725 317.344 432.884 317.542 432.884 317.542C432.884 317.542 432.69 317.366 432.348 317.015L430.842 315.324L425.021 309.108L403.746 286.212H404.043L376.423 307.636L376.194 307.812L376.023 307.571L347.182 265.907L344.397 261.877H344.865C331.009 277.141 317.975 291.472 306.744 303.837L306.55 304.046L306.356 303.837C292.569 289.407 281.03 277.35 272.938 268.872L263.579 258.989L261.125 256.375C260.863 256.078 260.657 255.859 260.498 255.694C260.338 255.529 260.292 255.474 260.304 255.464Z" fill="#E6E6E6"/>
<path d="M302.795 303.76C302.789 304.523 303.018 305.27 303.454 305.908C303.891 306.545 304.514 307.042 305.246 307.337C305.977 307.632 306.783 307.711 307.561 307.564C308.339 307.417 309.054 307.05 309.615 306.51C310.175 305.971 310.556 305.283 310.709 304.535C310.863 303.786 310.781 303.01 310.474 302.307C310.167 301.603 309.65 301.003 308.988 300.583C308.326 300.164 307.549 299.943 306.756 299.949C305.707 299.955 304.703 300.358 303.962 301.072C303.221 301.785 302.801 302.751 302.795 303.76Z" fill="#E0E0E0"/>
<path d="M372.725 308.339C372.729 309.1 372.968 309.842 373.412 310.472C373.855 311.102 374.482 311.591 375.215 311.878C375.947 312.164 376.751 312.235 377.525 312.082C378.3 311.928 379.009 311.557 379.564 311.016C380.119 310.474 380.495 309.786 380.643 309.039C380.791 308.292 380.706 307.519 380.398 306.819C380.09 306.118 379.572 305.521 378.911 305.104C378.25 304.687 377.476 304.467 376.685 304.474C375.628 304.483 374.617 304.894 373.875 305.619C373.132 306.344 372.719 307.322 372.725 308.339Z" fill="#E0E0E0"/>
<path d="M399.923 287.178C399.93 287.936 400.17 288.675 400.613 289.302C401.056 289.928 401.683 290.414 402.413 290.698C403.144 290.982 403.945 291.052 404.717 290.897C405.488 290.743 406.194 290.372 406.747 289.832C407.299 289.291 407.672 288.605 407.819 287.86C407.966 287.116 407.88 286.346 407.573 285.648C407.265 284.95 406.749 284.356 406.09 283.94C405.432 283.525 404.66 283.306 403.872 283.313C402.816 283.324 401.808 283.737 401.069 284.462C400.329 285.186 399.917 286.163 399.923 287.178Z" fill="#E0E0E0"/>
<path d="M340.653 262.03C340.658 262.791 340.897 263.533 341.34 264.163C341.783 264.793 342.411 265.282 343.143 265.569C343.875 265.855 344.68 265.926 345.454 265.773C346.228 265.619 346.938 265.248 347.493 264.707C348.048 264.165 348.423 263.477 348.572 262.73C348.72 261.983 348.635 261.21 348.326 260.51C348.018 259.809 347.501 259.212 346.84 258.795C346.179 258.378 345.404 258.158 344.614 258.165C343.556 258.174 342.546 258.585 341.803 259.31C341.061 260.035 340.647 261.013 340.653 262.03Z" fill="#E0E0E0"/>
<path d="M429.734 317.652C429.739 318.412 429.978 319.155 430.421 319.784C430.864 320.414 431.492 320.903 432.224 321.19C432.956 321.477 433.761 321.548 434.535 321.394C435.309 321.241 436.019 320.87 436.574 320.328C437.129 319.786 437.504 319.098 437.653 318.351C437.801 317.604 437.716 316.831 437.407 316.131C437.099 315.431 436.582 314.834 435.921 314.416C435.26 313.999 434.485 313.78 433.695 313.786C432.637 313.795 431.627 314.207 430.884 314.931C430.142 315.656 429.728 316.634 429.734 317.652Z" fill="#E0E0E0"/>
<path d="M79.8703 26.8405H54.2245V124.982H79.8703V26.8405Z" fill="#E6E6E6"/>
<path d="M117.591 48.2432H91.9456V124.971H117.591V48.2432Z" fill="#E6E6E6"/>
<path d="M155.894 65.7698H130.249V124.971H155.894V65.7698Z" fill="#E6E6E6"/>
<path d="M191.356 89.8191H165.71V124.982H191.356V89.8191Z" fill="#E6E6E6"/>
<path d="M170.823 2.35168C170.823 2.35168 170.583 2.64818 170.115 3.17529L167.981 5.53631L159.866 14.4313L130.603 46.2776L130.443 46.4423L130.26 46.3105L111.166 32.2323H111.554L84.8465 64.8033L84.5269 65.1986L84.3329 65.4402L84.0932 65.2316L48.1298 34.6702H48.5293C34.411 52.5041 22.4498 67.7354 13.8898 78.5082L3.926 91.038L1.26671 94.3325L0.570492 95.1781C0.492784 95.278 0.408936 95.3733 0.319397 95.4636C0.38423 95.3564 0.45669 95.2536 0.536253 95.1561L1.19822 94.2776L3.78905 90.9063L13.6159 78.2886L48.0842 34.2968L48.2668 34.0662L48.4836 34.2529L84.4927 64.7374H84.059L84.3786 64.3421L111.12 31.793L111.291 31.5844L111.508 31.7491L130.568 45.8163H130.226L159.638 14.2227C163.188 10.434 165.972 7.45807 167.878 5.43748L170.058 3.13137C170.561 2.58229 170.823 2.35168 170.823 2.35168Z" fill="#E6E6E6"/>
<path d="M166.589 25.1162C166.58 24.9496 166.599 24.7827 166.646 24.6221L166.931 23.2164C167.228 21.9096 167.627 20.1746 168.072 18.0551C169.088 13.6625 170.526 7.66667 172.181 0.946011L172.547 1.27545L171.257 1.6598C164.101 3.77923 157.618 5.65706 152.916 6.9968L147.334 8.54519L145.805 8.94052C145.63 9.00344 145.444 9.03688 145.257 9.03935C145.421 8.95378 145.593 8.88389 145.771 8.83071L147.266 8.33654L152.79 6.61245C157.458 5.17388 163.929 3.23016 171.051 1.12171L172.341 0.748344L172.843 0.594604L172.718 1.08877C171.131 7.84237 169.682 13.8163 168.54 18.154C167.981 20.2514 167.525 21.9755 167.194 23.2713C167.034 23.8094 166.897 24.2707 166.794 24.644C166.75 24.8103 166.681 24.9694 166.589 25.1162Z" fill="#E6E6E6"/>
<path d="M368.901 168.293C373.998 168.213 379.004 169.589 383.287 172.247C387.571 174.904 390.939 178.725 392.966 183.224C394.993 187.723 395.588 192.7 394.675 197.525C393.763 202.35 391.384 206.806 387.839 210.33C384.295 213.853 379.744 216.287 374.762 217.323C369.78 218.358 364.591 217.949 359.851 216.147C355.111 214.345 351.032 211.232 348.131 207.2C345.23 203.168 343.637 198.398 343.552 193.495C343.449 186.921 346.059 180.576 350.811 175.851C355.563 171.126 362.069 168.408 368.901 168.293ZM369.518 204.949C371.954 204.905 374.322 204.168 376.323 202.829C378.324 201.491 379.868 199.612 380.759 197.43C381.651 195.248 381.85 192.861 381.333 190.57C380.815 188.279 379.602 186.187 377.849 184.559C376.096 182.93 373.881 181.838 371.483 181.421C369.085 181.003 366.612 181.279 364.377 182.213C362.142 183.147 360.245 184.697 358.925 186.668C357.606 188.639 356.923 190.942 356.963 193.287C356.991 194.846 357.338 196.384 357.985 197.814C358.631 199.244 359.564 200.537 360.73 201.62C361.895 202.703 363.272 203.554 364.779 204.126C366.287 204.697 367.897 204.977 369.518 204.949Z" fill="#E0E0E0"/>
<path d="M368.856 165.207C376.541 165.101 383.956 167.932 389.476 173.078C394.996 178.224 398.17 185.266 398.302 192.661L380.726 193.1C380.611 185.753 375.441 182.766 369.312 182.393C367.806 182.306 366.298 182.52 364.882 183.022C363.466 183.524 362.173 184.302 361.085 185.307C359.997 186.313 359.137 187.525 358.559 188.866C357.981 190.207 357.698 191.648 357.728 193.1L340.334 193.55C340.215 186.154 343.152 179.014 348.5 173.7C353.847 168.386 361.169 165.331 368.856 165.207Z" fill="#F0F0F0"/>
<path d="M160.22 277.558C169.093 268.6 181.265 263.351 194.119 262.941C206.973 262.53 219.48 266.99 228.951 275.362C233.603 279.488 237.358 284.461 239.998 289.993C242.638 295.525 244.111 301.506 244.331 307.59C244.551 313.674 243.513 319.739 241.279 325.434C239.044 331.129 235.657 336.341 231.314 340.768C222.441 349.726 210.269 354.975 197.415 355.385C184.561 355.796 172.053 351.336 162.583 342.964C157.93 338.838 154.175 333.865 151.535 328.333C148.895 322.801 147.423 316.82 147.203 310.736C146.983 304.652 148.021 298.587 150.255 292.892C152.49 287.197 155.877 281.985 160.22 277.558ZM212.721 324.274C214.804 322.158 216.428 319.665 217.499 316.94C218.57 314.215 219.067 311.312 218.961 308.4C218.855 305.489 218.147 302.626 216.88 299.98C215.613 297.334 213.811 294.957 211.58 292.987C207.047 288.989 201.063 286.864 194.917 287.069C188.771 287.275 182.955 289.794 178.721 294.085C176.639 296.201 175.015 298.694 173.944 301.419C172.872 304.144 172.376 307.047 172.482 309.959C172.588 312.87 173.295 315.733 174.562 318.379C175.83 321.025 177.631 323.402 179.862 325.372C184.395 329.379 190.385 331.51 196.537 331.305C202.69 331.099 208.511 328.574 212.744 324.274H212.721Z" fill="#F5F5F5"/>
<path d="M160.22 277.558C169.093 268.6 181.265 263.351 194.119 262.941C206.973 262.53 219.48 266.99 228.951 275.362L211.626 293.02C207.093 289.022 201.109 286.897 194.963 287.102C188.817 287.308 183.001 289.827 178.767 294.118C176.685 296.234 175.061 298.727 173.989 301.452C172.918 304.177 172.421 307.08 172.527 309.991C172.634 312.903 173.341 315.765 174.608 318.412C175.875 321.058 177.677 323.435 179.908 325.405L162.56 342.997C157.904 338.869 154.147 333.893 151.505 328.357C148.864 322.821 147.392 316.836 147.175 310.748C146.957 304.66 147.998 298.592 150.237 292.894C152.477 287.197 155.87 281.984 160.22 277.558Z" fill="#E0E0E0"/>
<path d="M226.965 267.774C250.933 289.111 253.844 323.779 231.416 346.665L207.072 326.47C217.789 315.543 220.117 300.949 208.647 290.747L226.965 267.774Z" fill="#EBEBEB"/>
<path d="M204.538 327.919L218.999 355.439C224.978 353.33 230.366 349.913 234.738 345.457L208.761 325.273L204.538 327.919Z" fill="#E0E0E0"/>
<path d="M259.094 73.8958C258.883 61.5605 262.48 49.4422 269.428 39.0739C276.377 28.7057 286.366 20.5533 298.131 15.6483C309.896 10.7432 322.909 9.30585 335.523 11.518C348.138 13.7301 359.787 19.4923 368.997 28.0757C378.207 36.6591 384.564 47.6779 387.264 59.7382C389.964 71.7986 388.886 84.3585 384.166 95.8291C379.446 107.3 371.295 117.166 360.746 124.179C350.197 131.192 337.724 135.037 324.903 135.227C307.732 135.462 291.164 129.139 278.829 117.644C266.494 106.148 259.397 90.4164 259.094 73.8958ZM354.886 72.4133C354.786 66.5177 352.871 60.7829 349.384 55.9343C345.896 51.0856 340.993 47.3407 335.294 45.1732C329.594 43.0056 323.355 42.5127 317.365 43.7568C311.374 45.0009 305.902 47.9261 301.639 52.1626C297.377 56.399 294.515 61.7564 293.417 67.5574C292.319 73.3584 293.033 79.3425 295.469 84.753C297.906 90.1635 301.955 94.7574 307.104 97.9539C312.254 101.15 318.273 102.806 324.401 102.711C332.617 102.575 340.441 99.3089 346.156 93.6287C351.871 87.9484 355.011 80.3184 354.886 72.4133Z" fill="#FAFAFA"/>
<path d="M259.094 73.8959C258.834 57.3634 265.403 41.4073 277.358 29.5298C289.313 17.6524 305.678 10.8241 322.86 10.5438L323.408 43.0819C315.19 43.2086 307.36 46.4713 301.642 52.1522C295.924 57.8331 292.785 65.467 292.917 73.3743C293.049 81.2817 296.44 88.8148 302.344 94.3166C308.248 99.8183 316.182 102.838 324.401 102.711L324.903 135.227C307.73 135.468 291.159 129.147 278.822 117.65C266.486 106.153 259.391 90.4183 259.094 73.8959Z" fill="#E0E0E0"/>
<path d="M317.039 5.53619C358.846 4.88829 392.207 35.9658 392.869 76.191L353.299 76.8059C352.98 57.5664 337.697 45.4538 317.713 45.7723L317.039 5.53619Z" fill="#F0F0F0"/>
<path d="M393.383 444.828C393.383 444.982 308.046 445.114 202.78 445.114C97.5153 445.114 12.1778 444.982 12.1778 444.828C12.1778 444.674 97.4924 444.531 202.78 444.531C308.068 444.531 393.383 444.663 393.383 444.828Z" fill="#263238"/>
<path d="M129.13 292.559L340.619 291.098V293.954L129.13 295.777V292.559Z" fill="#263238"/>
<path d="M124.519 85.6792L129.336 294.261L340.619 292.68V82.1761L124.519 85.6792Z" fill="white"/>
<path d="M124.519 85.6789L340.619 81.9342H340.882V82.1868C340.882 142.442 340.882 213.547 340.882 289.407V292.976H340.585L129.301 294.524H129.05V294.283C126.323 169.27 124.542 87.8313 124.485 85.6899C124.485 87.7983 126.517 169.27 129.553 294.261L129.301 294.019L340.585 292.405L340.288 292.691V289.396C340.288 213.536 340.288 142.431 340.288 82.1758L340.551 82.4284L124.519 85.6789Z" fill="#263238"/>
<path d="M123.675 87.0738L341.544 85.8768L341.818 77.0807L123.675 78.3875V87.0738Z" fill="#263238"/>
<path d="M227.97 299.949C227.604 299.949 227.216 298.313 227.114 296.271C227.011 294.228 227.239 292.559 227.604 292.537C227.97 292.515 228.358 294.162 228.46 296.205C228.563 298.247 228.346 299.949 227.97 299.949Z" fill="#263238"/>
<path d="M227.89 298.445C227.89 298.368 228.255 298.346 228.826 298.566C229.17 298.705 229.493 298.89 229.784 299.115C230.177 299.418 230.506 299.791 230.755 300.213C231.093 300.796 231.263 301.457 231.247 302.125C231.231 302.793 231.029 303.445 230.663 304.013C230.444 304.355 230.166 304.659 229.841 304.913C229.503 305.175 229.115 305.372 228.7 305.495C227.818 305.729 226.878 305.664 226.041 305.308C225.617 305.127 225.231 304.874 224.899 304.562C224.57 304.249 224.31 303.875 224.135 303.463C223.819 302.714 223.751 301.89 223.941 301.102C224.081 300.446 224.41 299.841 224.89 299.355C225.371 298.87 225.983 298.524 226.657 298.357C227.52 298.13 228.439 298.208 229.248 298.577C229.796 298.84 230.001 299.115 229.956 299.181C229.91 299.247 229.602 299.181 229.077 299.049C228.362 298.92 227.624 298.981 226.942 299.225C226.503 299.389 226.112 299.653 225.801 299.993C225.445 300.395 225.212 300.884 225.13 301.406C225.047 301.928 225.117 302.462 225.333 302.947C225.582 303.469 226.026 303.881 226.577 304.1C227.126 304.336 227.741 304.387 228.323 304.243C228.859 304.11 229.323 303.789 229.625 303.343C229.922 302.922 230.099 302.433 230.138 301.926C230.173 301.697 230.173 301.464 230.138 301.234C230.101 301.019 230.036 300.808 229.944 300.608C229.651 299.962 229.192 299.399 228.609 298.972C228.187 298.686 227.89 298.533 227.89 298.445Z" fill="#263238"/>
<path d="M259.322 199.821C259.322 199.821 259.322 199.821 259.185 199.821H258.797L257.291 199.886L251.481 200.128L230.115 200.897C212.071 201.534 187.133 202.379 159.604 203.291L150.131 203.598H149.914V203.39C147.996 179.153 146.262 157.432 145.063 141.816C144.47 134.02 144.002 127.749 143.671 123.433C143.522 121.237 143.397 119.601 143.317 118.47C143.317 117.899 143.249 117.47 143.237 117.174C143.226 116.877 143.237 116.921 143.237 116.845C143.237 116.768 143.237 116.735 143.237 116.735C143.242 116.771 143.242 116.808 143.237 116.845C143.237 116.921 143.237 117.031 143.237 117.174C143.237 117.317 143.306 117.899 143.363 118.459C143.454 119.557 143.602 121.259 143.796 123.422C144.15 127.738 144.675 134.009 145.326 141.783C146.604 157.355 148.362 179.022 150.302 203.357L150.074 203.159L159.547 202.84C187.076 201.94 212.048 201.138 230.058 200.589L251.435 199.952L257.245 199.799H258.751H259.276L259.322 199.821Z" fill="#455A64"/>
<path d="M182.819 109.981V112.781L212.927 111.398V109.048L182.819 109.981Z" fill="#263238"/>
<path d="M160.026 197.427H170.492L168.849 170.094H158.588L160.026 197.427Z" fill="#FF725E"/>
<path d="M178.995 197.437H189.45L187.818 159.233H177.557L178.995 197.437Z" fill="#FF725E"/>
<path d="M196.754 196.218H207.22L205.577 146.198H195.328L196.754 196.218Z" fill="#FF725E"/>
<path d="M237.5 194.275H247.954L246.322 126.102H236.062L237.5 194.275Z" fill="#FF725E"/>
<path d="M217.675 194.505H228.129L226.486 135.842H216.237L217.675 194.505Z" fill="#FF725E"/>
<path d="M153.452 163.01C153.178 162.604 171.873 150.612 195.191 136.227C218.508 121.841 237.66 110.508 237.933 110.969C238.207 111.431 219.512 123.367 196.184 137.753C172.855 152.139 153.703 163.417 153.452 163.01Z" fill="#FF725E"/>
<path d="M227.582 110.925C227.49 110.442 234.258 108.817 242.727 107.28L244.873 106.895L243.652 108.641L243.583 108.74C238.744 115.658 234.452 121.05 234.053 120.82C233.654 120.589 237.226 114.725 242.042 107.796L242.111 107.697L243.047 109.059C234.589 110.541 227.673 111.398 227.582 110.925Z" fill="#FF725E"/>
<path d="M158.588 206.662H169.522L169.864 208.529H158.588V206.662Z" fill="#263238"/>
<path d="M177.945 205.893H188.879L189.221 207.76H177.945V205.893Z" fill="#263238"/>
<path d="M197.873 205.344H208.807L209.149 207.211H197.873V205.344Z" fill="#263238"/>
<path d="M216.545 204.894H227.479L227.821 206.772H216.545V204.894Z" fill="#263238"/>
<path d="M239.68 204.235H250.614L250.956 206.113H239.68V204.235Z" fill="#263238"/>
<path d="M288.723 278.668C307.999 278.668 323.625 263.633 323.625 245.086C323.625 226.54 307.999 211.505 288.723 211.505C269.447 211.505 253.821 226.54 253.821 245.086C253.821 263.633 269.447 278.668 288.723 278.668Z" fill="#FF725E"/>
<path opacity="0.3" d="M288.723 278.668C307.999 278.668 323.625 263.633 323.625 245.086C323.625 226.54 307.999 211.505 288.723 211.505C269.447 211.505 253.821 226.54 253.821 245.086C253.821 263.633 269.447 278.668 288.723 278.668Z" fill="black"/>
<path d="M288.723 245.042L254.677 252.411C249.198 228.252 269.446 211.461 288.723 211.461" fill="#FF725E"/>
<path d="M288.768 245.042L288.54 211.461C314.243 211.461 326.98 234.072 322.871 252.191L288.768 245.042Z" fill="#FF725E"/>
<path d="M288.768 245.042L288.54 211.461C314.243 211.461 326.98 234.072 322.871 252.191L288.768 245.042Z" fill="#FF725E"/>
<path opacity="0.1" d="M288.768 245.042L288.54 211.461C314.243 211.461 326.98 234.072 322.871 252.191L288.768 245.042Z" fill="black"/>
<path d="M324.526 165.569C323.848 165.133 323.126 164.765 322.369 164.471C320.261 163.851 318 163.913 315.932 164.647C313.261 165.449 310.614 167.491 308.046 170.05C305.478 172.608 302.727 175.705 298.709 177.517C296.771 178.444 294.589 178.792 292.444 178.516C290.508 178.13 288.637 177.487 286.885 176.606C285.343 175.833 283.694 175.275 281.989 174.947C280.506 174.723 278.987 174.906 277.606 175.475C275.575 176.304 273.913 177.798 272.915 179.692C272.595 180.403 272.331 181.137 272.128 181.888C272.164 181.093 272.361 180.314 272.71 179.593C273.666 177.593 275.345 175.996 277.435 175.101C278.867 174.488 280.448 174.271 282 174.475C283.762 174.79 285.469 175.345 287.068 176.123C288.774 176.974 290.595 177.595 292.478 177.967C294.508 178.211 296.568 177.874 298.401 177.001C302.259 175.266 304.964 172.191 307.6 169.676C310.237 167.162 312.965 165.042 315.738 164.263C317.892 163.539 320.238 163.539 322.392 164.263C322.967 164.476 323.508 164.764 324.001 165.119C324.195 165.248 324.371 165.399 324.526 165.569Z" fill="#263238"/>
<path d="M327.482 187.269C327.482 187.433 315.088 187.554 299.805 187.554C284.523 187.554 272.128 187.433 272.128 187.269C272.128 187.104 284.523 186.983 299.805 186.983C315.088 186.983 327.482 187.115 327.482 187.269Z" fill="#263238"/>
<path d="M324.401 187.269C324.241 187.269 324.104 180.482 324.104 172.103C324.104 163.724 324.241 156.949 324.401 156.949C324.561 156.949 324.698 163.735 324.698 172.103C324.698 180.471 324.572 187.269 324.401 187.269Z" fill="#263238"/>
<path d="M277.709 174.497C277.709 174.497 277.629 174.388 277.709 174.19C277.761 174.051 277.845 173.925 277.953 173.821C278.062 173.717 278.193 173.636 278.337 173.586C278.554 173.494 278.793 173.46 279.028 173.489C279.264 173.518 279.486 173.609 279.672 173.751C279.873 173.968 279.992 174.244 280.009 174.534C280.025 174.825 279.939 175.112 279.764 175.349C279.589 175.586 279.336 175.76 279.046 175.84C278.755 175.921 278.445 175.904 278.165 175.793C277.969 175.68 277.807 175.519 277.697 175.326C277.587 175.133 277.532 174.915 277.538 174.695C277.535 174.549 277.563 174.403 277.62 174.268C277.677 174.132 277.762 174.008 277.869 173.904C278.04 173.773 278.165 173.773 278.177 173.795C278.188 173.817 277.869 174.113 277.949 174.673C277.965 174.817 278.015 174.956 278.096 175.078C278.178 175.2 278.287 175.302 278.416 175.376C278.577 175.415 278.745 175.406 278.9 175.352C279.055 175.297 279.19 175.199 279.286 175.069C279.382 174.94 279.435 174.786 279.439 174.627C279.443 174.468 279.397 174.312 279.307 174.179C279.192 174.088 279.056 174.026 278.911 173.997C278.766 173.969 278.616 173.975 278.474 174.014C277.892 174.102 277.789 174.519 277.709 174.497Z" fill="#263238"/>
<path d="M315.031 163.483C315.031 163.483 315.031 163.351 315.236 163.241C315.502 163.113 315.809 163.089 316.092 163.175C316.317 163.234 316.521 163.351 316.682 163.514C316.843 163.677 316.955 163.878 317.005 164.098C317.023 164.381 316.94 164.662 316.772 164.894C316.603 165.127 316.358 165.299 316.076 165.381C315.794 165.464 315.491 165.452 315.217 165.349C314.942 165.246 314.712 165.056 314.563 164.812C314.48 164.6 314.459 164.371 314.501 164.148C314.544 163.926 314.648 163.719 314.802 163.549C314.995 163.329 315.27 163.191 315.567 163.164C315.772 163.164 315.875 163.23 315.864 163.263C315.852 163.296 315.43 163.318 315.145 163.79C315.066 163.908 315.016 164.042 315.001 164.181C314.985 164.32 315.003 164.461 315.053 164.592C315.154 164.711 315.289 164.798 315.441 164.842C315.593 164.886 315.755 164.886 315.907 164.841C316.059 164.797 316.193 164.709 316.294 164.591C316.394 164.472 316.455 164.327 316.469 164.175C316.438 164.038 316.375 163.91 316.284 163.801C316.193 163.693 316.076 163.606 315.944 163.549C315.441 163.307 315.088 163.56 315.031 163.483Z" fill="#263238"/>
<path d="M323.419 127.541C323.419 127.694 311.412 127.826 296.609 127.826C281.806 127.826 269.799 127.694 269.799 127.541C269.799 127.387 281.795 127.255 296.609 127.255C311.424 127.255 323.419 127.409 323.419 127.541Z" fill="#263238"/>
<path d="M323.419 134.733C323.419 134.898 311.412 135.019 296.609 135.019C281.806 135.019 269.799 134.898 269.799 134.733C269.799 134.569 281.795 134.448 296.609 134.448C311.424 134.448 323.419 134.58 323.419 134.733Z" fill="#263238"/>
<path d="M323.419 141.904C323.419 142.058 311.412 142.19 296.609 142.19C281.806 142.19 269.799 142.058 269.799 141.904C269.799 141.75 281.795 141.619 296.609 141.619C311.424 141.619 323.419 141.739 323.419 141.904Z" fill="#263238"/>
<path d="M323.419 149.064C323.419 149.229 311.412 149.35 296.609 149.35C281.806 149.35 269.799 149.229 269.799 149.064C269.799 148.899 281.795 148.779 296.609 148.779C311.424 148.779 323.419 148.91 323.419 149.064Z" fill="#263238"/>
<path d="M298.333 114.461H269.799V116.779H298.333V114.461Z" fill="#263238"/>
<path d="M180.547 229.503H152.014V231.82H180.547V229.503Z" fill="#263238"/>
<path d="M230.092 242.934C230.092 243.098 212.778 243.219 191.424 243.219C170.07 243.219 152.744 243.098 152.744 242.934C152.744 242.769 170.058 242.648 191.424 242.648C212.79 242.648 230.092 242.78 230.092 242.934Z" fill="#263238"/>
<path d="M230.549 249.435C230.549 249.588 212.927 249.72 191.196 249.72C169.465 249.72 151.843 249.588 151.843 249.435C151.843 249.281 169.453 249.149 191.196 249.149C212.938 249.149 230.549 249.303 230.549 249.435Z" fill="#263238"/>
<path d="M231.451 255.562C231.451 255.716 213.726 255.848 191.869 255.848C170.013 255.848 152.288 255.716 152.288 255.562C152.288 255.409 170.013 255.277 191.869 255.277C213.726 255.277 231.451 255.398 231.451 255.562Z" fill="#263238"/>
<path d="M193.456 262.085C193.456 262.239 184.325 262.371 173.094 262.371C161.864 262.371 152.744 262.239 152.744 262.085C152.744 261.932 161.875 261.8 173.094 261.8C184.314 261.8 193.456 261.932 193.456 262.085Z" fill="#263238"/>
<path d="M69.1645 439.853V429.97L49.8418 429.805L49.682 444.334L50.8233 444.411C56.1533 444.729 77.9414 445.663 81.5138 444.652C85.5541 443.51 69.1645 439.853 69.1645 439.853Z" fill="#FF725E"/>
<path d="M82.0274 443.741C82.0274 443.917 74.8027 444.059 65.8889 444.059C56.9751 444.059 49.7391 443.917 49.7391 443.741C49.7391 443.565 56.9751 443.422 65.8889 443.422C74.8027 443.422 82.0274 443.565 82.0274 443.741Z" fill="#263238"/>
<path d="M69.507 441.885C69.3472 441.797 69.507 441.259 69.895 440.787C70.2831 440.315 70.8195 440.007 70.9336 440.128C71.0478 440.249 70.7967 440.699 70.4201 441.226C70.0434 441.753 69.6668 441.973 69.507 441.885Z" fill="#263238"/>
<path d="M70.7396 442.533C70.5684 442.467 70.6597 441.874 71.0364 441.259C71.413 440.644 71.9152 440.271 72.0522 440.381C72.1891 440.49 71.9608 441.007 71.607 441.578C71.2532 442.149 70.9108 442.599 70.7396 442.533Z" fill="#263238"/>
<path d="M55.5484 443.675C55.4686 443.73 55.1718 443.466 54.7495 443.027C54.2355 442.453 53.6661 441.927 53.0489 441.457C52.4334 441.022 51.7162 440.739 50.9603 440.633C50.3782 440.556 50.0016 440.633 49.9673 440.545C49.9331 440.457 50.2983 440.227 50.9717 440.183C51.8591 440.158 52.7287 440.426 53.437 440.941C54.1121 441.438 54.6849 442.053 55.1261 442.753C55.48 443.269 55.6398 443.62 55.5484 443.675Z" fill="#263238"/>
<path d="M69.564 440.018C69.6553 440.161 69.3129 440.512 68.7651 440.699C68.2172 440.886 67.7264 440.82 67.7036 440.644C67.6808 440.468 68.0574 440.271 68.5482 440.106C69.039 439.941 69.4613 439.864 69.564 440.018Z" fill="#263238"/>
<path d="M69.2445 439.052C69.2445 439.228 68.7423 439.381 68.1031 439.392C67.464 439.403 66.9618 439.26 66.9618 439.085C66.9618 438.909 67.4868 438.766 68.1031 438.755C68.7194 438.744 69.2445 438.876 69.2445 439.052Z" fill="#FF725E"/>
<path d="M82.0274 443.741C82.0274 443.917 74.8027 444.059 65.8889 444.059C56.9751 444.059 49.7391 443.917 49.7391 443.741C49.7391 443.565 56.9751 443.422 65.8889 443.422C74.8027 443.422 82.0274 443.565 82.0274 443.741Z" fill="#263238"/>
<path d="M69.507 441.885C69.3472 441.797 69.507 441.259 69.895 440.787C70.2831 440.315 70.8195 440.007 70.9336 440.128C71.0478 440.249 70.7967 440.699 70.4201 441.226C70.0434 441.753 69.6668 441.973 69.507 441.885Z" fill="#263238"/>
<path d="M70.7396 442.533C70.5684 442.467 70.6597 441.874 71.0364 441.259C71.413 440.644 71.9152 440.271 72.0522 440.381C72.1891 440.49 71.9608 441.007 71.607 441.578C71.2532 442.149 70.9108 442.599 70.7396 442.533Z" fill="#263238"/>
<path d="M55.5484 443.675C55.4686 443.73 55.1718 443.466 54.7495 443.027C54.2355 442.453 53.6661 441.927 53.0489 441.457C52.4334 441.022 51.7162 440.739 50.9603 440.633C50.3782 440.556 50.0016 440.633 49.9673 440.545C49.9331 440.457 50.2983 440.227 50.9717 440.183C51.8591 440.158 52.7287 440.426 53.437 440.941C54.1121 441.438 54.6849 442.053 55.1261 442.753C55.48 443.269 55.6398 443.62 55.5484 443.675Z" fill="#263238"/>
<path d="M69.564 440.018C69.6553 440.161 69.3129 440.512 68.7651 440.699C68.2172 440.886 67.7264 440.82 67.7036 440.644C67.6808 440.468 68.0574 440.271 68.5482 440.106C69.039 439.941 69.4613 439.864 69.564 440.018Z" fill="#263238"/>
<path d="M69.2445 439.052C69.2445 439.228 68.7423 439.381 68.1031 439.392C67.464 439.403 66.9618 439.26 66.9618 439.085C66.9618 438.909 67.4868 438.766 68.1031 438.755C68.7194 438.744 69.2445 438.876 69.2445 439.052Z" fill="#263238"/>
<path d="M89.5487 436.34L92.5961 426.862L74.175 421.24L69.6096 435.066L70.751 435.483C75.7386 437.306 96.2712 444.4 99.9919 444.455C104.078 444.499 89.5487 436.34 89.5487 436.34Z" fill="#FF725E"/>
<path d="M100.643 443.708C100.643 443.884 93.6348 441.962 85.1204 439.414C76.6061 436.866 69.7467 434.681 69.8037 434.516C69.8608 434.352 76.8001 436.273 85.3258 438.81C93.8516 441.347 100.7 443.543 100.643 443.708Z" fill="#263238"/>
<path d="M89.252 438.371C89.1265 438.239 89.4232 437.778 89.9711 437.394C90.5189 437.009 91.1124 436.91 91.1695 437.064C91.2265 437.218 90.8613 437.569 90.3591 437.921C89.8569 438.272 89.3776 438.492 89.252 438.371Z" fill="#263238"/>
<path d="M90.2222 439.348C90.0852 439.239 90.3477 438.689 90.9069 438.25C91.4662 437.811 92.0483 437.558 92.151 437.701C92.2537 437.844 91.8657 438.272 91.3521 438.722C90.8385 439.173 90.3705 439.414 90.2222 439.348Z" fill="#263238"/>
<path d="M75.3848 436.12C75.2935 436.12 75.0995 435.823 74.837 435.274C74.5235 434.582 74.1412 433.92 73.6956 433.298C73.2425 432.708 72.6471 432.233 71.9608 431.914C71.4244 431.683 71.0363 431.639 71.0363 431.552C71.0363 431.464 71.4472 431.332 72.1092 431.486C72.9605 431.718 73.7048 432.221 74.2207 432.913C74.7094 433.578 75.069 434.322 75.2821 435.11C75.4305 435.703 75.4647 436.12 75.3848 436.12Z" fill="#455A64"/>
<path d="M89.8798 436.603C89.8798 436.768 89.4917 437.009 88.9096 437.031C88.3275 437.053 87.871 436.845 87.9052 436.669C87.9395 436.493 88.3732 436.416 88.8868 436.394C89.4004 436.372 89.7884 436.427 89.8798 436.603Z" fill="#263238"/>
<path d="M89.8798 435.604C89.8798 435.768 89.3091 435.768 88.6814 435.604C88.0536 435.439 87.6085 435.142 87.6656 434.978C87.7226 434.813 88.2705 434.824 88.864 434.978C89.4575 435.131 89.9254 435.428 89.8798 435.604Z" fill="#263238"/>
<path d="M102.663 243.538L77.3023 241.66L38.885 238.662L43.1764 437.218L76.5376 436.801C76.5376 436.801 76.5376 434.604 76.4577 430.717L96.0201 435.867C96.0201 435.867 115.08 373.91 121.575 348.488C126.996 327.305 102.663 243.538 102.663 243.538ZM76.0925 399.881C75.5903 354.044 75.0082 276.098 75.7044 266.566C75.7044 266.566 94.2853 335.189 94.4565 340.603C94.5706 343.876 84.2187 375.546 76.0925 399.881Z" fill="#455A64"/>
<path d="M76.7202 429.278C76.7202 429.454 69.2559 429.597 60.0567 429.597C50.8576 429.597 43.3818 429.454 43.3818 429.278C43.3818 429.103 50.8462 428.96 60.0567 428.96C69.2673 428.96 76.7202 429.103 76.7202 429.278Z" fill="#455A64"/>
<path d="M76.4234 422.14C77.4669 422.378 78.4896 422.694 79.4822 423.085L87.1177 425.643L94.7533 428.213C95.8331 428.51 96.8804 428.907 97.8805 429.399C96.7655 429.25 95.6684 428.996 94.6049 428.641C92.619 428.081 89.8912 427.247 86.9009 426.247C83.9106 425.248 81.1942 424.26 79.3224 423.502C78.2952 423.18 77.3195 422.721 76.4234 422.14Z" fill="#455A64"/>
<path d="M106.988 339.988C104.925 340.451 102.818 340.708 100.7 340.757C98.5989 341.015 96.4761 341.062 94.3651 340.899C96.4273 340.428 98.5351 340.167 100.654 340.12C102.755 339.862 104.878 339.818 106.988 339.988Z" fill="#455A64"/>
<path d="M104.808 343.59C103.168 343.457 101.552 343.117 100.003 342.58C98.3914 342.241 96.8332 341.698 95.3695 340.965C97.0149 341.085 98.6354 341.422 100.186 341.965C102.788 342.689 104.865 343.414 104.808 343.59Z" fill="#455A64"/>
<path d="M78.7746 241.912C78.9279 243.166 78.9851 244.429 78.9458 245.69C78.9458 248.029 78.9458 251.258 78.9458 254.827C78.9458 256.595 78.9458 258.286 78.8773 259.845C78.9191 261.25 78.6466 262.647 78.0783 263.941C77.6735 264.824 77.0264 265.583 76.2066 266.138C75.927 266.361 75.5932 266.512 75.2364 266.577C75.2364 266.577 75.556 266.379 76.0696 265.962C76.7903 265.368 77.3503 264.614 77.7017 263.766C78.1776 262.508 78.3909 261.172 78.3294 259.834C78.3294 258.264 78.3294 256.54 78.3294 254.805C78.3294 251.236 78.4207 248.007 78.4892 245.679C78.4856 244.418 78.5809 243.159 78.7746 241.912Z" fill="#455A64"/>
<path d="M59.6801 240.792C59.6924 240.953 59.6924 241.115 59.6801 241.275C59.6801 241.627 59.6801 242.099 59.6801 242.703C59.6801 243.977 59.5774 245.822 59.4975 248.194C59.3377 252.971 59.1095 259.834 58.8241 268.301C58.2877 285.278 57.7399 308.746 57.6029 334.651C57.4659 360.556 57.7741 384.067 58.1279 401.034C58.3219 409.501 58.4703 416.408 58.5845 421.141C58.5845 423.502 58.6757 425.336 58.71 426.632C58.71 427.236 58.71 427.73 58.71 428.059C58.7223 428.22 58.7223 428.382 58.71 428.542C58.6977 428.382 58.6977 428.22 58.71 428.059C58.71 427.719 58.71 427.247 58.6301 426.643C58.6301 425.358 58.5046 423.524 58.4018 421.152C58.2078 416.408 57.9795 409.534 57.7513 401.045C57.2833 384.056 56.9181 360.589 57.0551 334.651C57.192 308.713 57.8083 285.234 58.4475 268.29C58.7671 259.801 59.0638 252.916 59.3149 248.183C59.4404 245.833 59.5432 243.999 59.6116 242.692C59.6116 242.088 59.6801 241.594 59.703 241.264C59.6836 241.108 59.676 240.95 59.6801 240.792Z" fill="#455A64"/>
<path d="M94.3538 245.789C94.4231 245.935 94.4803 246.085 94.525 246.239C94.6277 246.569 94.7761 247.008 94.9587 247.579C95.3239 248.754 95.906 250.489 96.5451 252.751C97.8577 257.265 99.6268 263.821 101.601 271.98C103.576 280.139 105.767 289.869 108.05 300.718C110.332 311.568 112.741 323.516 114.898 336.123C115.172 337.704 115.423 339.274 115.64 340.845C115.64 341.262 115.72 341.69 115.72 342.097L115.514 343.261C115.366 344.04 115.252 344.82 115.069 345.578C114.418 348.631 113.688 351.617 112.9 354.539C111.348 360.381 109.705 365.97 108.084 371.285C104.865 381.915 101.761 391.425 99.1246 399.409C96.4881 407.392 94.2853 413.817 92.7331 418.253L90.9298 423.359L90.439 424.688C90.3964 424.841 90.3351 424.988 90.2564 425.127C90.2862 424.971 90.3282 424.817 90.382 424.666C90.4961 424.337 90.633 423.898 90.8157 423.326L92.5162 418.187L98.7251 399.288C101.305 391.294 104.363 381.773 107.559 371.143C109.157 365.827 110.789 360.227 112.341 354.396C113.117 351.486 113.848 348.51 114.498 345.468C114.681 344.71 114.784 343.941 114.921 343.173L115.126 342.02C115.126 341.646 115.069 341.284 115.046 340.922C114.829 339.373 114.59 337.803 114.316 336.232C112.147 323.637 109.75 311.689 107.468 300.839C105.185 289.989 103.119 280.183 101.202 272.068C99.2843 263.952 97.5609 257.331 96.3169 252.806C95.7234 250.544 95.1755 248.798 94.8446 247.612L94.4679 246.261C94.4119 246.108 94.3736 245.95 94.3538 245.789Z" fill="#455A64"/>
<path d="M75.9898 395.851C76.0817 396.362 76.1161 396.881 76.0925 397.399C76.0925 398.497 76.0925 399.936 76.1496 401.638C76.1496 405.317 76.2865 410.203 76.3664 415.595C76.4463 420.987 76.6632 425.874 76.7659 429.553C76.7659 431.255 76.8572 432.682 76.8914 433.792C76.943 434.307 76.943 434.825 76.8914 435.34C76.7655 434.836 76.6966 434.321 76.686 433.803C76.5947 432.803 76.492 431.365 76.3778 429.575C76.1496 426.006 75.9327 421.064 75.8072 415.606C75.6816 410.148 75.7044 405.207 75.8072 401.638C75.8072 399.848 75.8871 398.343 75.9327 397.399C75.9096 396.882 75.9287 396.364 75.9898 395.851Z" fill="#455A64"/>
<path d="M102.663 243.538L77.3023 241.66L38.885 238.662L43.1764 437.218L76.5376 436.801C76.5376 436.801 76.5376 434.604 76.4577 430.717L96.0201 435.867C96.0201 435.867 115.08 373.91 121.575 348.488C126.996 327.305 102.663 243.538 102.663 243.538ZM76.0925 399.881C75.5903 354.044 75.0082 276.098 75.7044 266.566C75.7044 266.566 94.2853 335.189 94.4565 340.603C94.5706 343.876 84.2187 375.546 76.0925 399.881Z" fill="#343E61"/>
<path d="M76.7202 429.278C76.7202 429.454 69.2559 429.597 60.0567 429.597C50.8576 429.597 43.3818 429.454 43.3818 429.278C43.3818 429.103 50.8462 428.96 60.0567 428.96C69.2673 428.96 76.7202 429.103 76.7202 429.278Z" fill="#455A64"/>
<path d="M76.4234 422.14C77.4669 422.378 78.4896 422.694 79.4822 423.085L87.1177 425.643L94.7533 428.213C95.8331 428.51 96.8804 428.907 97.8805 429.399C96.7655 429.25 95.6684 428.996 94.6049 428.641C92.619 428.081 89.8912 427.247 86.9009 426.247C83.9106 425.248 81.1942 424.26 79.3224 423.502C78.2952 423.18 77.3195 422.721 76.4234 422.14Z" fill="#455A64"/>
<path d="M106.988 339.988C104.925 340.451 102.818 340.708 100.7 340.757C98.5989 341.015 96.4761 341.062 94.3651 340.899C96.4273 340.428 98.5351 340.167 100.654 340.12C102.755 339.862 104.878 339.818 106.988 339.988Z" fill="#455A64"/>
<path d="M104.808 343.59C103.168 343.457 101.552 343.117 100.003 342.58C98.3914 342.241 96.8332 341.698 95.3695 340.965C97.0149 341.085 98.6354 341.422 100.186 341.965C102.788 342.689 104.865 343.414 104.808 343.59Z" fill="#455A64"/>
<path d="M78.7746 241.912C78.9279 243.166 78.9851 244.429 78.9458 245.69C78.9458 248.029 78.9458 251.258 78.9458 254.827C78.9458 256.595 78.9458 258.286 78.8773 259.845C78.9191 261.25 78.6466 262.647 78.0783 263.941C77.6735 264.824 77.0264 265.583 76.2066 266.138C75.927 266.361 75.5932 266.512 75.2364 266.577C75.2364 266.577 75.556 266.379 76.0696 265.962C76.7903 265.368 77.3503 264.614 77.7017 263.766C78.1776 262.508 78.3909 261.172 78.3294 259.834C78.3294 258.264 78.3294 256.54 78.3294 254.805C78.3294 251.236 78.4207 248.007 78.4892 245.679C78.4856 244.418 78.5809 243.159 78.7746 241.912Z" fill="#455A64"/>
<path d="M59.6801 240.792C59.6924 240.953 59.6924 241.115 59.6801 241.275C59.6801 241.627 59.6801 242.099 59.6801 242.703C59.6801 243.977 59.5774 245.822 59.4975 248.194C59.3377 252.971 59.1095 259.834 58.8241 268.301C58.2877 285.278 57.7399 308.746 57.6029 334.651C57.4659 360.556 57.7741 384.067 58.1279 401.034C58.3219 409.501 58.4703 416.408 58.5845 421.141C58.5845 423.502 58.6757 425.336 58.71 426.632C58.71 427.236 58.71 427.73 58.71 428.059C58.7223 428.22 58.7223 428.382 58.71 428.542C58.6977 428.382 58.6977 428.22 58.71 428.059C58.71 427.719 58.71 427.247 58.6301 426.643C58.6301 425.358 58.5046 423.524 58.4018 421.152C58.2078 416.408 57.9795 409.534 57.7513 401.045C57.2833 384.056 56.9181 360.589 57.0551 334.651C57.192 308.713 57.8083 285.234 58.4475 268.29C58.7671 259.801 59.0638 252.916 59.3149 248.183C59.4404 245.833 59.5432 243.999 59.6116 242.692C59.6116 242.088 59.6801 241.594 59.703 241.264C59.6836 241.108 59.676 240.95 59.6801 240.792Z" fill="#455A64"/>
<path d="M94.3538 245.789C94.4231 245.935 94.4803 246.085 94.525 246.239C94.6277 246.569 94.7761 247.008 94.9587 247.579C95.3239 248.754 95.906 250.489 96.5451 252.751C97.8577 257.265 99.6268 263.821 101.601 271.98C103.576 280.139 105.767 289.869 108.05 300.718C110.332 311.568 112.741 323.516 114.898 336.123C115.172 337.704 115.423 339.274 115.64 340.845C115.64 341.262 115.72 341.69 115.72 342.097L115.514 343.261C115.366 344.04 115.252 344.82 115.069 345.578C114.418 348.631 113.688 351.617 112.9 354.539C111.348 360.381 109.705 365.97 108.084 371.285C104.865 381.915 101.761 391.425 99.1246 399.409C96.4881 407.392 94.2853 413.817 92.7331 418.253L90.9298 423.359L90.439 424.688C90.3964 424.841 90.3351 424.988 90.2564 425.127C90.2862 424.971 90.3282 424.817 90.382 424.666C90.4961 424.337 90.633 423.898 90.8157 423.326L92.5162 418.187L98.7251 399.288C101.305 391.294 104.363 381.773 107.559 371.143C109.157 365.827 110.789 360.227 112.341 354.396C113.117 351.486 113.848 348.51 114.498 345.468C114.681 344.71 114.784 343.941 114.921 343.173L115.126 342.02C115.126 341.646 115.069 341.284 115.046 340.922C114.829 339.373 114.59 337.803 114.316 336.232C112.147 323.637 109.75 311.689 107.468 300.839C105.185 289.989 103.119 280.183 101.202 272.068C99.2843 263.952 97.5609 257.331 96.3169 252.806C95.7234 250.544 95.1755 248.798 94.8446 247.612L94.4679 246.261C94.4119 246.108 94.3736 245.95 94.3538 245.789Z" fill="#455A64"/>
<path d="M75.9898 395.851C76.0817 396.362 76.1161 396.881 76.0925 397.399C76.0925 398.497 76.0925 399.936 76.1496 401.638C76.1496 405.317 76.2865 410.203 76.3664 415.595C76.4463 420.987 76.6632 425.874 76.7659 429.553C76.7659 431.255 76.8572 432.682 76.8914 433.792C76.943 434.307 76.943 434.825 76.8914 435.34C76.7655 434.836 76.6966 434.321 76.686 433.803C76.5947 432.803 76.492 431.365 76.3778 429.575C76.1496 426.006 75.9327 421.064 75.8072 415.606C75.6816 410.148 75.7044 405.207 75.8072 401.638C75.8072 399.848 75.8871 398.343 75.9327 397.399C75.9096 396.882 75.9287 396.364 75.9898 395.851Z" fill="#455A64"/>
<path d="M58.9725 148.241L78.3751 149.624C78.6376 147.428 79.0143 139.071 79.0143 139.071C79.0143 139.071 87.1063 138.357 87.6998 130.648C88.2933 122.939 88.0422 105.138 88.0422 105.138C83.6063 102.981 78.6519 102.003 73.6915 102.307C68.7312 102.61 63.9451 104.182 59.8285 106.862L58.5844 107.675L58.9725 148.241Z" fill="#E5BAAB"/>
<path d="M85.2802 118.283C85.1264 118.127 85.0235 117.932 84.9842 117.72C84.9448 117.509 84.9708 117.291 85.0589 117.094C85.1469 116.896 85.2932 116.728 85.4797 116.61C85.6661 116.492 85.8844 116.429 86.1076 116.429C86.3309 116.429 86.5492 116.492 86.7356 116.61C86.922 116.728 87.0683 116.896 87.1564 117.094C87.2445 117.291 87.2705 117.509 87.2311 117.72C87.1918 117.932 87.0889 118.127 86.9351 118.283C86.8285 118.391 86.7001 118.477 86.5579 118.536C86.4156 118.595 86.2624 118.625 86.1076 118.625C85.9528 118.625 85.7996 118.595 85.6574 118.536C85.5151 118.477 85.3868 118.391 85.2802 118.283Z" fill="#263238"/>
<path d="M87.3346 116.636C87.1976 116.768 86.4558 116.142 85.3487 116.065C84.2416 115.988 83.4084 116.493 83.2943 116.351C83.1801 116.208 83.3742 116.054 83.7508 115.823C84.2364 115.517 84.8158 115.377 85.3943 115.428C85.9773 115.462 86.5318 115.682 86.9694 116.054C87.3003 116.329 87.4031 116.559 87.3346 116.636Z" fill="#263238"/>
<path d="M74.5516 116.812C74.7324 116.939 74.8703 117.114 74.9483 117.316C75.0263 117.518 75.0408 117.737 74.9902 117.947C74.9395 118.157 74.8259 118.347 74.6634 118.496C74.5009 118.644 74.2968 118.743 74.0763 118.78C73.8559 118.817 73.6289 118.791 73.4237 118.706C73.2184 118.62 73.0439 118.478 72.9218 118.297C72.7997 118.117 72.7355 117.906 72.7372 117.69C72.7388 117.475 72.8062 117.265 72.9309 117.086C73.0166 116.963 73.1272 116.859 73.256 116.778C73.3848 116.697 73.5292 116.642 73.6806 116.617C73.8319 116.591 73.9871 116.595 74.1368 116.629C74.2864 116.662 74.4275 116.724 74.5516 116.812Z" fill="#263238"/>
<path d="M75.2821 116.866C75.1451 116.987 74.4033 116.361 73.2962 116.284C72.1891 116.208 71.3559 116.724 71.2418 116.581C71.1276 116.438 71.3217 116.273 71.6869 116.043C72.1817 115.747 72.7607 115.609 73.3418 115.647C73.923 115.688 74.4752 115.908 74.9169 116.273C75.2478 116.559 75.3506 116.812 75.2821 116.866Z" fill="#263238"/>
<path d="M79.1512 125.893C79.735 125.72 80.3434 125.635 80.9545 125.641C81.2512 125.641 81.4909 125.586 81.5251 125.432C81.554 125.149 81.4986 124.863 81.3654 124.609L80.6349 122.412C79.9321 120.535 79.4162 118.597 79.0941 116.625C79.9785 118.428 80.6854 120.307 81.2056 122.237L81.8904 124.433C82.0552 124.796 82.0873 125.203 81.9817 125.586C81.9337 125.689 81.8611 125.779 81.7699 125.85C81.6786 125.92 81.5713 125.969 81.4567 125.992C81.2938 126.013 81.1288 126.013 80.9659 125.992C80.3594 126.053 79.7467 126.02 79.1512 125.893Z" fill="#263238"/>
<path d="M75.4875 126.849C74.3462 126.124 78.5463 128.661 80.8062 128.694C80.3957 129.229 79.8084 129.614 79.1406 129.785C78.4728 129.957 77.7642 129.905 77.1311 129.638C74.7799 128.639 75.4875 126.849 75.4875 126.849Z" fill="white"/>
<path d="M78.9686 138.961C75.2626 138.811 71.687 137.603 68.6966 135.491C68.6966 135.491 70.8081 141.191 78.8545 140.982L78.9686 138.961Z" fill="#D78776"/>
<path d="M60.1138 114.517C59.9311 114.451 54.156 113.726 54.7038 120.293C55.2517 126.86 61.9627 124.147 61.9513 123.961C61.9399 123.774 60.1138 114.517 60.1138 114.517Z" fill="#E5BAAB"/>
<path d="M59.6116 121.819C59.6116 121.819 59.5089 121.907 59.3149 122.017C59.04 122.152 58.7223 122.184 58.4246 122.105C57.9625 121.867 57.5736 121.517 57.2971 121.089C57.0205 120.661 56.8662 120.171 56.8496 119.667C56.7867 119.106 56.8569 118.539 57.055 118.009C57.1007 117.799 57.1982 117.602 57.3392 117.436C57.4802 117.27 57.6607 117.138 57.8654 117.053C58.0002 117.011 58.1457 117.015 58.2783 117.063C58.4109 117.11 58.5228 117.2 58.5958 117.317C58.6986 117.492 58.6757 117.624 58.71 117.635C58.7442 117.646 58.8469 117.514 58.71 117.251C58.6624 117.09 58.5573 116.95 58.4132 116.856C58.2108 116.74 57.9707 116.701 57.7398 116.746C57.468 116.82 57.2204 116.96 57.0206 117.152C56.8208 117.344 56.6755 117.582 56.5985 117.844C56.3524 118.432 56.2622 119.07 56.336 119.7C56.3487 120.286 56.542 120.856 56.8914 121.337C57.2409 121.818 57.7308 122.188 58.2991 122.401C58.4862 122.439 58.6797 122.436 58.8653 122.392C59.051 122.348 59.2241 122.265 59.3719 122.149C59.6116 121.984 59.6459 121.83 59.6116 121.819Z" fill="#D78776"/>
<path d="M88.5558 102.36C89.0177 102.348 89.4707 102.234 89.8795 102.027C90.2884 101.82 90.6422 101.525 90.9137 101.165C91.1851 100.805 91.367 100.39 91.445 99.9518C91.5231 99.5136 91.4954 99.064 91.3641 98.6377C91.2327 98.2114 91.0012 97.8199 90.6874 97.4935C90.3737 97.1671 89.9861 96.9145 89.5546 96.7552C89.1232 96.5959 88.6595 96.5342 88.1993 96.575C87.7391 96.6157 87.2949 96.7577 86.9009 96.99C87.8553 96.2277 88.633 95.2812 89.1835 94.2117C89.4498 93.6723 89.5379 93.0673 89.4358 92.4783C89.3338 91.8892 89.0466 91.3444 88.6129 90.9173C88.1106 90.5975 87.5296 90.4109 86.9285 90.3762C86.3273 90.3414 85.7273 90.4599 85.1889 90.7196C83.4883 91.4224 82.1415 92.8061 80.3953 93.3881C78.649 93.9701 76.6974 93.6846 74.8256 93.7615C72.7253 93.7975 70.6911 94.4743 69.0162 95.6942C67.589 96.7731 66.6654 98.353 66.4482 100.087C66.2239 99.7904 65.9758 99.5114 65.7063 99.2522C64.8187 98.2329 63.6212 97.507 62.2823 97.1767C62.2024 97.3195 63.7661 98.1541 65.2612 99.6475C65.6682 100.022 66.0495 100.422 66.4025 100.845C63.8003 100.537 60.9356 100.515 58.8812 102.074C58.0489 102.788 57.3911 103.67 56.955 104.658C56.5189 105.645 56.3153 106.713 56.3588 107.785C56.3588 109.915 57.2719 111.947 57.9224 113.989C58.0798 114.568 58.351 115.112 58.7214 115.593L59.7029 121.083L63.2753 121.017L63.047 109.498C63.047 109.498 62.6818 104.644 67.0189 105.105C71.3559 105.567 77.2908 110.234 85.7139 109.048C87.096 108.974 88.4424 108.598 89.6515 107.95C90.2367 107.593 90.7124 107.092 91.0294 106.5C91.3464 105.907 91.4933 105.244 91.4548 104.578C91.3717 103.916 91.0209 103.312 90.4784 102.897C89.9358 102.482 89.2451 102.289 88.5558 102.36Z" fill="#263238"/>
<path d="M161.145 159.211L161.67 155.719C162.206 153.809 162.543 151.851 162.674 149.877C162.76 148.895 162.667 147.906 162.4 146.956C162.131 145.759 161.685 144.605 161.076 143.529C160.414 142.596 161.282 141.333 162.217 141.717C163.153 142.102 165.105 144.584 165.733 148.163C166.36 151.743 169.294 146.78 170.389 144.99C171.485 143.2 175.172 137.808 176.016 137.698C177.249 137.533 177.66 138.796 176.507 140.542C175.354 142.288 172.318 147.834 173.334 148.339C174.095 148.222 174.872 148.26 175.617 148.449C175.737 148.483 175.843 148.552 175.921 148.646C175.998 148.741 176.044 148.856 176.05 148.976C176.046 149.53 176.107 150.083 176.233 150.623C176.233 150.623 177.728 150.294 178.036 150.92C178.245 151.563 178.341 152.234 178.322 152.908C178.322 152.908 179.463 152.534 180.011 152.908C181.152 153.797 179.691 155.323 179.691 155.323C176.331 159.18 172.721 162.83 168.883 166.25L161.019 158.958" fill="#E5BAAB"/>
<path d="M175.776 150.865C175.441 151.544 174.99 152.164 174.441 152.699C173.985 153.226 173.414 153.797 172.741 154.489C172.389 154.848 172.008 155.179 171.599 155.477C171.348 155.67 171.044 155.789 170.724 155.82C170.405 155.851 170.082 155.793 169.796 155.653C169.64 155.565 169.507 155.442 169.41 155.295C169.313 155.148 169.253 154.981 169.237 154.807C169.214 154.498 169.285 154.189 169.442 153.918C169.723 153.51 170.028 153.118 170.355 152.743C170.937 152.04 171.417 151.381 171.816 150.81C172.199 150.165 172.638 149.551 173.129 148.976C172.938 149.707 172.614 150.399 172.17 151.019C171.755 151.725 171.298 152.407 170.8 153.061C170.497 153.412 170.215 153.778 169.956 154.16C169.75 154.522 169.762 154.972 170.093 155.137C170.279 155.213 170.483 155.239 170.683 155.214C170.884 155.189 171.074 155.113 171.234 154.994C171.613 154.718 171.971 154.417 172.307 154.094C172.992 153.479 173.585 152.897 174.076 152.403C174.587 151.836 175.157 151.321 175.776 150.865Z" fill="#D78776"/>
<path d="M177.774 153.116C177.438 153.702 177.006 154.232 176.495 154.687C175.98 155.218 175.419 155.707 174.818 156.147C174.457 156.41 174.075 156.645 173.676 156.85C173.439 156.964 173.185 157.042 172.923 157.081C172.764 157.105 172.602 157.098 172.447 157.058C172.291 157.018 172.146 156.947 172.021 156.85C171.811 156.64 171.677 156.37 171.642 156.08C171.607 155.79 171.672 155.497 171.827 155.247C172.058 154.855 172.33 154.487 172.638 154.148C173.14 153.588 173.608 153.05 174.076 152.512C174.909 151.59 175.457 151.052 175.525 151.096C175.224 151.699 174.84 152.26 174.384 152.765L173.106 154.511C172.836 154.822 172.592 155.152 172.375 155.499C172.287 155.639 172.246 155.802 172.259 155.965C172.271 156.129 172.336 156.284 172.444 156.411C172.649 156.597 173.083 156.52 173.459 156.345C173.834 156.158 174.196 155.949 174.544 155.719C175.137 155.312 175.705 154.872 176.244 154.401C176.698 153.915 177.212 153.483 177.774 153.116Z" fill="#D78776"/>
<path d="M178.242 156.257C178.299 156.257 178.242 156.751 177.705 157.355C177.543 157.542 177.343 157.696 177.117 157.807C176.892 157.919 176.645 157.985 176.393 158.003C176.066 158.006 175.748 157.901 175.491 157.707C175.35 157.593 175.236 157.45 175.159 157.288C175.082 157.127 175.044 156.951 175.046 156.773C175.136 156.214 175.372 155.685 175.731 155.236C175.972 154.873 176.235 154.525 176.518 154.193C177.009 153.622 177.363 153.325 177.431 153.38C177.5 153.435 177.249 153.808 176.861 154.478C176.632 154.863 176.404 155.214 176.199 155.576C175.924 155.964 175.733 156.401 175.639 156.861C175.648 157.048 175.731 157.224 175.872 157.352C176.012 157.481 176.199 157.553 176.393 157.553C176.772 157.541 177.133 157.397 177.409 157.147C177.922 156.62 178.162 156.213 178.242 156.257Z" fill="#D78776"/>
<path d="M160.289 154.676C160.289 154.676 130.351 183.019 126.151 183.227C121.358 183.447 106.612 163.329 106.612 163.329C97.1729 149.317 84.7209 147.054 80.1784 146.703V144.968L57.8654 143.211C57.8654 143.211 57.8654 145.056 57.8654 146.67H48.0157C48.0157 146.67 30.325 145.89 27.6771 168.754L40.3916 178.429L45.6075 197.097C47.4222 203.598 40.9394 213.954 37.8464 230.722C37.3694 233.518 37.8543 236.387 39.2274 238.892L103.656 246.019L100.232 198.623L99.193 187.642C104.5 194.615 114.03 204.477 125.706 204.257C145.622 203.895 173.288 163.625 173.288 163.625L160.289 154.676Z" fill="#F0EDED"/>
<path d="M72.6685 144.661C72.7791 145.635 72.7791 146.618 72.6685 147.593C72.502 150.032 72.1588 152.458 71.6413 154.851L71.5614 155.214L71.219 155.038C70.4429 154.643 69.6325 154.226 68.8108 153.764C65.615 151.952 62.8872 150.086 60.8214 148.79C59.7062 148.137 58.6316 147.422 57.6029 146.648C57.9445 146.744 58.2708 146.885 58.573 147.066C59.1665 147.384 60.0225 147.845 61.0497 148.449C63.1269 149.657 65.889 151.48 69.039 153.27C69.838 153.72 70.6369 154.149 71.413 154.544L70.9907 154.731C71.6527 151.897 71.9723 149.361 72.2119 147.56C72.303 146.585 72.4554 145.617 72.6685 144.661Z" fill="#FAFAFA"/>
<path d="M80.2468 146.824C80.1035 147.767 79.8899 148.699 79.6077 149.613C79.3909 150.481 79.1626 151.513 78.7745 152.633C78.5725 153.225 78.3324 153.805 78.0555 154.368C77.9757 154.57 77.832 154.743 77.6446 154.862C77.5146 154.939 77.3614 154.971 77.2101 154.953C77.0587 154.935 76.9182 154.868 76.8114 154.764C76.5976 154.46 76.425 154.132 76.2978 153.786C75.1565 151.293 74.2549 149.031 73.5929 147.373C73.1766 146.504 72.8589 145.595 72.6456 144.661C73.1787 145.468 73.626 146.326 73.9809 147.219C74.7456 148.834 75.7614 151.074 76.8457 153.567C76.951 153.844 77.0808 154.112 77.2337 154.368C77.2908 154.368 77.2337 154.368 77.3364 154.368C77.4224 154.301 77.4892 154.214 77.5305 154.116C77.8036 153.575 78.0474 153.022 78.2609 152.457C78.6604 151.359 78.9343 150.349 79.1968 149.503C79.4238 148.57 79.7768 147.669 80.2468 146.824Z" fill="#FAFAFA"/>
<path d="M76.0925 223.519C76.0379 223.262 76.0073 223.001 76.0011 222.739C76.0011 222.168 75.9555 221.436 75.8642 220.543C75.7729 218.522 75.6359 215.722 75.4761 212.285C75.2022 205.256 74.8142 195.648 74.4033 185.039C73.9924 174.431 73.7299 164.823 73.5016 157.794C73.4217 154.346 73.3533 151.546 73.2962 149.525C73.2962 148.603 73.2962 147.856 73.2962 147.329C73.2667 147.066 73.2667 146.801 73.2962 146.538C73.3488 146.795 73.3755 147.056 73.3761 147.318C73.3761 147.889 73.4674 148.636 73.5245 149.514C73.6158 151.524 73.7527 154.324 73.9125 157.762C74.1864 164.79 74.5631 174.398 74.9854 185.007C75.4076 195.615 75.6473 205.223 75.887 212.263C75.9669 215.7 76.0354 218.5 76.0925 220.521C76.0925 221.454 76.0925 222.201 76.0925 222.772C76.1193 223.02 76.1193 223.27 76.0925 223.519Z" fill="#F5F5F5"/>
<path d="M72.0293 151.601L73.9011 156.564L75.5104 151.238L73.0108 145.901L72.0293 151.601Z" fill="#FF725E"/>
<path d="M74.2435 155.082L73.0109 210.956L81.7763 228.592L85.2345 208.748L74.2435 155.082Z" fill="#FF725E"/>
<path d="M126.471 190.135C126.471 190.135 126.471 190.3 126.471 190.574L126.402 190.991L126.208 190.574C125.767 189.463 125.512 188.292 125.455 187.104C125.266 185.779 125.431 184.43 125.934 183.184C126.106 183.184 125.934 184.941 126.049 187.071C126.14 188.586 126.391 189.882 126.471 190.508H126.208C126.311 190.212 126.425 190.135 126.471 190.135Z" fill="#FAFAFA"/>
<path d="M129.039 189.948C128.188 189.089 127.555 188.051 127.19 186.917C126.641 185.87 126.341 184.719 126.311 183.546C126.892 184.567 127.366 185.641 127.726 186.753C128.271 187.774 128.71 188.845 129.039 189.948Z" fill="#FAFAFA"/>
<path d="M171.417 166.294C168.948 165.038 166.576 163.614 164.317 162.033C161.951 160.612 159.693 159.03 157.561 157.3C160.028 158.567 162.4 159.998 164.66 161.583C167.025 162.997 169.283 164.571 171.417 166.294Z" fill="#FAFAFA"/>
<path d="M46.977 175.266C46.977 175.266 42.2291 207.112 44.4775 208.891C56.8952 218.939 74.1521 224.21 80.3153 225.868C81.217 225.66 82.267 225.385 83.4768 225.012C84.5255 224.691 85.5098 224.201 86.3872 223.562C87.5076 222.806 88.5139 221.904 89.3775 220.883C89.5079 220.664 89.7059 220.489 89.944 220.383C90.1821 220.276 90.4487 220.244 90.7068 220.29C90.9649 220.336 91.2019 220.457 91.385 220.638C91.568 220.819 91.6881 221.051 91.7286 221.3C91.7857 222.398 89.9596 225.221 86.5242 227.285C86.5242 227.285 94.4336 239.529 96.9559 240.639C99.4783 241.748 106.692 244.866 105.47 245.459C104.249 246.052 95.4722 243.604 95.4722 243.604L77.6674 239.024C77.6674 239.024 18.7747 230.14 22.6894 204.147C25.0976 188.213 27.7227 173.86 28.67 170.225L46.977 175.266Z" fill="#E5BAAB"/>
<path d="M27.6771 168.743L22.4498 203.455C21.2286 214.14 28.6701 222.629 38.6796 227.406C53.9164 234.665 76.5376 239.848 76.3436 239.815C76.1495 239.782 77.8729 224.32 77.8729 224.32C77.8729 224.32 46.1553 211.142 45.1623 205.432C44.1694 199.722 49.1912 176.002 49.1912 176.002L27.6771 168.743Z" fill="#F0EDED"/>
<path d="M76.2978 239.815C76.2859 239.724 76.2859 239.632 76.2978 239.541C76.2978 239.321 76.2978 239.057 76.3549 238.739C76.412 237.981 76.4919 236.96 76.606 235.653C76.8457 232.93 77.1995 229.064 77.6218 224.309L77.7473 224.507L61.7687 217.072L57.2033 214.876C55.6625 214.085 54.1103 213.218 52.5695 212.263C51.0062 211.292 49.5046 210.232 48.0727 209.089C47.3536 208.507 46.6346 207.892 45.9498 207.244C45.5637 206.918 45.2527 206.518 45.0367 206.069C44.9157 205.851 44.8273 205.619 44.7742 205.377C44.6993 205.148 44.6458 204.913 44.6144 204.674C44.1008 200.875 45.1509 197.295 45.7558 193.88C46.3607 190.464 46.9656 187.137 47.5363 183.996C48.6776 177.693 49.7162 172.026 50.5836 167.239C51.052 165.117 51.3194 162.96 51.3825 160.792C51.4046 159.161 51.0539 157.546 50.3553 156.059C49.9073 155.122 49.2712 154.278 48.4836 153.578C47.9357 153.105 47.6047 152.919 47.6161 152.886C47.9557 153.05 48.2737 153.253 48.5634 153.49C49.4014 154.17 50.0819 155.012 50.5608 155.961C51.3099 157.469 51.6998 159.12 51.7021 160.792C51.6767 162.98 51.4359 165.16 50.9831 167.304C50.1499 172.103 49.1569 177.781 48.0613 184.095C47.502 187.247 46.9199 190.563 46.315 193.978C46.1667 194.835 46.0069 195.702 45.8471 196.581C45.6873 197.46 45.5161 198.316 45.3905 199.195C45.0904 200.97 45.0405 202.776 45.2422 204.565C45.2783 204.783 45.3278 204.999 45.3905 205.212C45.4354 205.423 45.5124 205.627 45.6188 205.816C45.8068 206.204 46.0793 206.549 46.4177 206.827C47.0911 207.464 47.7873 208.068 48.495 208.639C49.9078 209.771 51.3904 210.819 52.9348 211.779C54.4527 212.735 55.9821 213.591 57.5001 214.382L62.0654 216.578L77.9185 224.177L78.0441 224.243V224.375C77.5305 229.13 77.1196 232.985 76.8343 235.708C76.6745 237.004 76.5603 238.036 76.469 238.783C76.4234 239.105 76.3891 239.368 76.3663 239.573C76.3517 239.656 76.3287 239.737 76.2978 239.815Z" fill="#FAFAFA"/>
<path d="M73.3532 222.201C73.3871 222.996 73.3219 223.792 73.1592 224.573C72.9652 226.022 72.6456 228.021 72.2233 230.217C71.801 232.413 71.3217 234.39 70.9336 235.807C70.777 236.588 70.5121 237.345 70.1461 238.058C70.1859 237.264 70.3121 236.476 70.5227 235.708C70.8575 234.053 71.238 232.186 71.6641 230.107C72.0634 227.442 72.6275 224.802 73.3532 222.201Z" fill="#FAFAFA"/>
<path d="M76.2978 239.815C76.1078 239.814 75.9191 239.785 75.7386 239.727L74.175 239.365L68.4683 237.915C63.6405 236.664 56.9294 235.016 49.739 232.48C46.3554 231.289 43.0606 229.876 39.8779 228.252C37.2778 226.921 34.7965 225.386 32.4592 223.661C30.8822 222.5 29.3946 221.23 28.0081 219.862C27.5173 219.379 27.1635 218.994 26.8667 218.764C26.7308 218.634 26.6155 218.486 26.5243 218.324C26.5243 218.324 27.095 218.841 28.1222 219.752C29.5692 221.048 31.0936 222.262 32.6875 223.387C35.0477 225.02 37.527 226.488 40.1062 227.78C43.2809 229.367 46.5596 230.753 49.9216 231.931C57.0664 234.456 63.766 236.158 68.5596 237.52L74.2663 239.134L75.8071 239.607C75.9793 239.655 76.1443 239.726 76.2978 239.815Z" fill="#FAFAFA"/>
<path d="M76.6859 225.912C76.6927 226.109 76.6386 226.302 76.5304 226.469C76.4223 226.635 76.265 226.767 76.0787 226.847C75.8924 226.928 75.6855 226.953 75.4843 226.919C75.2832 226.886 75.097 226.795 74.9495 226.66C74.8019 226.524 74.6998 226.349 74.656 226.157C74.6122 225.965 74.6288 225.765 74.7037 225.583C74.7786 225.4 74.9084 225.243 75.0764 225.131C75.2445 225.02 75.4432 224.959 75.6473 224.957C75.9159 224.954 76.175 225.052 76.3691 225.231C76.5633 225.409 76.677 225.654 76.6859 225.912Z" fill="#FAFAFA"/>
</svg>
