<svg width="178" height="168" viewBox="0 0 178 168" fill="none" xmlns="http://www.w3.org/2000/svg">
<path d="M176.479 46.2769H146.839V77.1733H176.479V46.2769Z" fill="#E0E0E0"/>
<path d="M174.472 46.2769H144.833V77.1733H174.472V46.2769Z" fill="#FAFAFA"/>
<path d="M174.48 77.1809H144.826V46.2692H174.48V77.1809ZM144.841 77.1618H174.461V46.2844H144.841V77.1618Z" fill="#E0E0E0"/>
<path d="M170.49 50.4308H148.819V73.0194H170.49V50.4308Z" fill="#FAFAFA"/>
<path d="M148.819 73.1685C148.663 73.3944 148.484 73.6032 148.284 73.7914C147.936 74.1735 147.451 74.6512 146.904 75.1862C146.358 75.7212 145.857 76.2027 145.49 76.5428C145.303 76.7408 145.093 76.9153 144.864 77.0625C145.017 76.8366 145.195 76.6289 145.395 76.4434C145.743 76.0804 146.228 75.5836 146.775 75.0448C147.321 74.506 147.825 74.0283 148.192 73.6882C148.379 73.4902 148.59 73.3156 148.819 73.1685Z" fill="#E0E0E0"/>
<path d="M170.487 73.115C170.716 73.2667 170.925 73.4464 171.11 73.65C171.492 73.9939 171.969 74.4793 172.504 75.0257C173.039 75.5722 173.521 76.0728 173.861 76.4397C174.059 76.6267 174.234 76.8372 174.381 77.0664C174.155 76.9139 173.947 76.7356 173.762 76.5352C173.399 76.1913 172.902 75.7021 172.363 75.1556C171.824 74.6092 171.346 74.1047 171.006 73.7379C170.81 73.5506 170.636 73.3416 170.487 73.115Z" fill="#E0E0E0"/>
<path d="M170.429 50.4919C170.58 50.2619 170.76 50.0525 170.964 49.869C171.308 49.4868 171.794 49.0092 172.34 48.4703C172.887 47.9315 173.387 47.4576 173.758 47.1175C173.945 46.9199 174.154 46.7442 174.381 46.594C174.231 46.822 174.052 47.03 173.85 47.2131C173.506 47.5952 173.016 48.0729 172.47 48.6117C171.924 49.1505 171.423 49.6321 171.052 49.9722C170.865 50.1684 170.656 50.3428 170.429 50.4919Z" fill="#E0E0E0"/>
<path d="M148.758 50.5454C148.531 50.391 148.322 50.2116 148.135 50.0104C147.772 49.6665 147.279 49.1773 146.74 48.6347C146.201 48.092 145.724 47.5876 145.383 47.2169C145.187 47.0286 145.013 46.8183 144.864 46.5902C145.09 46.7431 145.297 46.9213 145.483 47.1214C145.846 47.4691 146.343 47.9583 146.882 48.5048C147.42 49.0512 147.898 49.5518 148.238 49.9225C148.434 50.1098 148.609 50.3188 148.758 50.5454Z" fill="#E0E0E0"/>
<path d="M170.429 73.0194C170.425 72.9825 170.425 72.9454 170.429 72.9086C170.429 72.8321 170.429 72.7289 170.429 72.5952C170.429 72.3124 170.429 71.9035 170.429 71.3761C170.429 70.3061 170.429 68.747 170.406 66.7713C170.406 62.8161 170.38 57.1794 170.364 50.4307L170.448 50.5148H148.838L148.934 50.4193C148.934 58.708 148.934 66.4694 148.934 73.0079L148.853 72.9238L164.498 72.9659L168.893 72.9888H170.059H170.357H170.074H168.928L164.552 73.0079L148.853 73.0499H148.769V72.9697C148.769 66.4274 148.769 58.6698 148.769 50.3811V50.2855H148.869H170.479H170.563V50.3696C170.544 57.1374 170.529 62.7932 170.517 66.7636C170.517 68.7317 170.517 70.2832 170.498 71.3494C170.498 71.8691 170.498 72.2704 170.498 72.5493C170.498 72.6831 170.498 72.7824 170.498 72.8589C170.498 72.9353 170.429 73.0194 170.429 73.0194Z" fill="#E0E0E0"/>
<path d="M163.268 58.1082H156.038V65.3383H163.268V58.1082Z" fill="#EBEBEB"/>
<path d="M147.399 1.00465L49.0005 3.75317L53.0357 148.217L151.434 145.468L147.399 1.00465Z" fill="#E0E0E0"/>
<path d="M141.872 5.39197L43.5831 0L35.6669 144.303L133.956 149.695L141.872 5.39197Z" fill="#F5F5F5"/>
<path d="M159.055 14.7194L60.9734 6.36255L48.7044 150.361L146.786 158.717L159.055 14.7194Z" fill="#EBEBEB"/>
<path d="M8.79317 129.183C7.29973 128.248 5.61226 127.666 3.85967 127.483C3.05335 127.403 2.17059 127.425 1.52476 127.915C1.45023 127.957 1.38853 128.019 1.34617 128.094C1.3038 128.168 1.28233 128.253 1.28401 128.339C1.32089 128.461 1.40284 128.565 1.5133 128.629C2.56078 129.377 3.7928 129.824 5.07598 129.921C6.35916 130.019 7.64461 129.764 8.79317 129.183Z" fill="#E0E0E0"/>
<path d="M8.66706 129.042C7.52299 128.204 6.45635 127.265 5.47997 126.237C4.49744 125.205 3.80759 123.929 3.48135 122.542C3.4157 122.337 3.39571 122.12 3.42278 121.907C3.44985 121.694 3.52332 121.489 3.63803 121.307C6.1793 123.291 8.1741 125.859 8.66706 129.042Z" fill="#E0E0E0"/>
<path d="M8.76642 129.164C8.53113 127.777 8.55056 126.359 8.82374 124.98C9.11131 123.595 9.90759 122.367 11.0555 121.54C11.4949 122.568 11.3039 123.749 10.9943 124.823C10.5146 126.483 9.76866 128.053 8.78553 129.474" fill="#E0E0E0"/>
<path d="M11.258 133.628C9.76221 133.867 8.37832 134.567 7.29899 135.63C6.16442 136.663 5.37468 138.02 5.03668 139.517C6.51941 139.425 7.77667 138.37 8.69 137.205C9.60332 136.039 10.2186 134.747 11.2351 133.651" fill="#E0E0E0"/>
<path d="M11.8007 134.338C11.2062 132.827 10.998 131.191 11.1948 129.579C11.3917 127.967 11.9873 126.43 12.928 125.106C13.7916 128.163 13.4745 131.633 11.8007 134.338Z" fill="#E0E0E0"/>
<path d="M15.0871 138.259C13.7057 138.175 12.3301 138.498 11.1305 139.189C9.93094 139.879 8.96016 140.906 8.33841 142.142C8.25816 142.31 8.18174 142.524 8.29638 142.673C8.35443 142.73 8.42562 142.772 8.50363 142.794C8.58163 142.817 8.66403 142.82 8.74349 142.803C10.0734 142.719 11.2504 141.917 12.2248 141.007C13.1993 140.097 14.0438 139.043 15.1177 138.256" fill="#E0E0E0"/>
<path d="M14.9839 138.045C14.2759 135.765 14.2322 133.33 14.8578 131.025C15.1062 130.12 15.5228 129.168 16.3558 128.733C16.3895 128.711 16.4271 128.696 16.4665 128.69C16.506 128.683 16.5463 128.685 16.5851 128.694C16.6539 128.729 16.7061 128.789 16.7303 128.862C17.0128 129.494 17.1349 130.186 17.0857 130.876C17.0354 131.563 16.9294 132.244 16.7686 132.913C16.5049 134.163 16.3635 135.5 15.6833 136.574C15.5178 136.837 15.3698 137.11 15.24 137.392C15.11 137.663 15.11 137.774 14.9916 137.977" fill="#E0E0E0"/>
<path d="M23.693 139.345C23.4022 138.063 23.3937 136.733 23.6682 135.447C23.9427 134.162 24.4937 132.952 25.2828 131.9C25.3936 131.751 25.5464 131.591 25.7337 131.61C26.0165 131.637 26.0929 132.015 26.0776 132.302C25.9607 134.827 25.1342 137.268 23.693 139.345Z" fill="#E0E0E0"/>
<path d="M24.4803 139.88C26.0038 140.239 27.5872 140.263 29.1211 139.951C30.655 139.639 32.103 138.998 33.3651 138.072C31.8776 137.326 30.1775 137.118 28.5539 137.484C26.9489 137.866 25.4968 138.569 24.4803 139.88Z" fill="#E0E0E0"/>
<path d="M25.1414 138.244C26.8113 135.523 30.0137 133.746 33.2046 133.582C32.8225 134.881 31.7716 135.875 30.5678 136.498C29.3371 137.058 28.0342 137.444 26.6967 137.644C26.1846 137.747 25.4777 137.854 25.1414 138.259" fill="#E0E0E0"/>
<path d="M23.8612 130.315C24.3653 128.779 24.711 127.197 24.893 125.591C25.0652 123.98 24.7369 122.355 23.9529 120.937C22.3899 123.956 22.2332 127.483 23.8153 130.49" fill="#E0E0E0"/>
<path d="M29.1157 127.659C30.9385 124.342 34.6606 121.693 38.4286 121.323C36.9764 124.942 33.0136 127.735 29.1157 127.659Z" fill="#E0E0E0"/>
<path d="M27.9654 128.308C30.6863 128.725 33.0059 130.46 35.5472 131.514C36.0808 131.771 36.6722 131.885 37.263 131.843C37.5375 131.84 37.8043 131.752 38.0275 131.593C38.2507 131.433 38.4195 131.209 38.5111 130.95C38.6028 130.691 38.6129 130.411 38.54 130.146C38.4672 129.881 38.3149 129.645 38.1037 129.47C37.7443 129.134 37.3205 128.874 36.858 128.706C34.0874 127.559 31.1258 127.525 28.1985 128.224" fill="#E0E0E0"/>
<path d="M26.391 130.219C27.0062 130.395 27.2164 130.712 27.7056 131.128C29.3639 132.541 31.3254 133.551 33.4377 134.082C33.6556 134.136 33.946 134.159 34.053 133.96C34.16 133.761 34.0262 133.578 33.904 133.421C32.9795 132.339 31.7811 131.524 30.4341 131.063C29.1042 130.57 27.9578 129.974 26.3719 130.104" fill="#E0E0E0"/>
<path d="M24.614 118.69C25.7296 119.719 27.0481 120.503 28.4848 120.992C29.9215 121.481 31.4446 121.664 32.9562 121.529C33.096 121.53 33.2315 121.481 33.3384 121.391C33.5486 121.162 33.2963 120.811 33.0518 120.627C30.5984 118.716 27.6253 117.922 24.614 118.697" fill="#E0E0E0"/>
<path d="M26.7043 117.918C28.1816 116.83 29.8953 116.108 31.7051 115.81C33.515 115.512 35.3698 115.646 37.1178 116.202C35.7539 117.466 34.0037 118.233 32.1499 118.38C30.3216 118.545 28.4786 118.389 26.7043 117.918Z" fill="#E0E0E0"/>
<path d="M25.8827 112.621C25.642 110.172 25.7987 108.242 25.6305 105.781C25.6305 105.586 25.5732 105.349 25.3898 105.276C25.1337 105.177 24.9197 105.494 24.8356 105.754C24.4796 106.894 24.3885 108.101 24.5693 109.282C24.7501 110.462 25.198 111.586 25.8789 112.568" fill="#E0E0E0"/>
<path d="M25.7069 112.912C27.308 111.873 28.6864 110.526 29.7615 108.949C30.564 107.856 31.2404 106.541 31.057 105.196C30.4933 105.211 29.9397 105.348 29.4347 105.599C28.9298 105.85 28.4857 106.208 28.1336 106.648C27.4328 107.534 26.924 108.555 26.6394 109.648C26.3146 110.726 26.0891 111.834 25.7069 112.892" fill="#E0E0E0"/>
<path d="M29.6927 111.784C33.3443 110.434 36.7248 108.441 39.6744 105.899C38.4821 105.422 37.114 105.708 35.9255 106.19C33.2179 107.215 30.981 109.199 29.6392 111.765" fill="#E0E0E0"/>
<path d="M26.8266 114.23C28.665 114.493 30.5308 114.502 32.3716 114.257C34.1676 113.959 35.8644 113.248 37.542 112.541C37.6883 112.498 37.8135 112.403 37.8936 112.273C37.9237 112.196 37.9276 112.111 37.9049 112.031C37.8821 111.951 37.8339 111.88 37.7675 111.83C37.6398 111.727 37.489 111.656 37.328 111.624C35.5013 111.112 33.5333 111.352 31.7372 111.956C30.0264 112.543 28.3808 113.305 26.8266 114.23Z" fill="#E0E0E0"/>
<path d="M16.3062 118.774C15.0489 116.236 15.133 113.275 16.2183 110.661C16.9826 111.826 17.0743 113.309 16.9367 114.692C16.7991 116.076 16.3864 117.497 16.3482 118.9" fill="#E0E0E0"/>
<path d="M11.2848 116.24C9.71107 116.219 8.15035 116.527 6.7026 117.145C5.25486 117.762 3.95202 118.675 2.87756 119.825C4.46381 120.013 6.06979 119.714 7.48242 118.969C8.88111 118.225 10.2 117.34 11.4185 116.328" fill="#E0E0E0"/>
<path d="M7.91041 115.113C6.38183 114.987 4.89529 114.796 3.4202 115.25C2.67495 115.459 1.98356 115.826 1.39328 116.327C0.802999 116.828 0.327748 117.45 0 118.151C1.44706 118.266 2.89863 117.992 4.2036 117.356C5.5028 116.721 6.74214 115.97 7.90659 115.113" fill="#E0E0E0"/>
<path d="M12.9089 115.163C11.5255 114.257 10.1078 113.336 8.49893 112.961C6.89009 112.587 5.02904 112.866 3.91318 114.077C5.21247 114.841 6.79073 114.929 8.30021 114.929C9.80968 114.929 11.6631 114.929 13.0847 115.415" fill="#E0E0E0"/>
<path d="M12.9165 115.235C10.5549 112.919 9.66064 108.739 10.6236 105.582C12.4825 108.437 13.2929 111.849 12.9165 115.235Z" fill="#E0E0E0"/>
<path d="M19.4092 108.666C19.8563 107.63 20.1735 106.545 20.5556 105.49C20.9209 104.421 21.4806 103.429 22.2065 102.563C22.9441 101.69 23.9953 101.141 25.1337 101.035C24.7713 102.634 24.079 104.139 23.1012 105.455C22.1233 106.772 20.8814 107.869 19.455 108.677" fill="#E0E0E0"/>
<path d="M18.236 110.034C17.4984 109.021 16.6463 107.646 15.6489 106.889C14.6515 106.132 13.356 105.67 12.1255 105.964C12.7579 107.071 13.6399 108.016 14.7013 108.722C15.7627 109.429 16.9743 109.878 18.2398 110.034" fill="#E0E0E0"/>
<path d="M18.4691 108.75C17.9467 107.54 17.5622 106.274 17.3227 104.978C17.0837 103.674 17.2924 102.327 17.915 101.157C19.2105 103.606 19.627 106.239 18.5532 108.8" fill="#E0E0E0"/>
<path d="M19.4206 101.142C20.1544 98.7149 22.3785 96.9379 24.7707 96.1049C25.068 95.9825 25.3906 95.934 25.7108 95.9635C25.8696 95.9823 26.0195 96.0469 26.1423 96.1493C26.265 96.2518 26.3554 96.3877 26.4024 96.5405C26.4903 96.957 26.1464 97.3048 25.8254 97.599C23.9494 99.2033 21.7663 100.409 19.4092 101.142" fill="#E0E0E0"/>
<path d="M19.4436 99.1544C19.5391 97.5876 19.6346 95.9978 20.1429 94.5151C20.6512 93.0324 21.6371 91.6376 23.0625 90.9879C23.3071 92.57 22.6077 94.1444 21.767 95.5049C20.9263 96.8653 19.9098 98.1493 19.4054 99.6703" fill="#E0E0E0"/>
<path d="M19.4092 100.236C18.8016 98.4626 18.7404 96.2156 17.6819 94.6718C16.9405 93.5941 15.7712 92.8604 15.1139 91.7178C14.7285 92.8135 14.7819 94.0158 15.2629 95.073C15.7458 96.1174 16.4095 97.0683 17.2233 97.8818C18.0105 98.7187 18.6793 99.3492 19.4092 100.236Z" fill="#E0E0E0"/>
<path d="M19.4206 152.364C19.3748 152.364 19.3327 140.556 19.3289 125.996C19.3251 111.436 19.3633 99.6282 19.4092 99.6282C19.455 99.6282 19.4971 111.436 19.5009 125.996C19.5047 140.556 19.4703 152.364 19.4206 152.364Z" fill="#E0E0E0"/>
<path d="M29.7615 116.993C29.6175 117.06 29.4679 117.115 29.3144 117.157L28.0953 117.57C27.0636 117.922 25.6496 118.43 24.1134 119.06C22.5772 119.691 21.1556 120.241 20.3416 120.948C20.0145 121.221 19.7533 121.565 19.5773 121.953C19.4627 122.228 19.4397 122.4 19.4245 122.396C19.4185 122.355 19.4185 122.312 19.4245 122.27C19.4438 122.153 19.4732 122.038 19.5124 121.926C19.6672 121.515 19.9219 121.149 20.2537 120.86C20.7463 120.443 21.2973 120.101 21.8893 119.844C22.5428 119.538 23.2688 119.217 24.0408 118.9C25.5694 118.269 27.0062 117.776 28.0495 117.455C28.5692 117.295 28.9934 117.173 29.2876 117.096C29.4414 117.045 29.6003 117.01 29.7615 116.993Z" fill="#E0E0E0"/>
<path d="M33.1244 108.681C33.1244 108.681 33.0862 108.735 32.9983 108.815L32.6161 109.17L31.2022 110.458L26.4942 114.662C24.656 116.297 23.0548 117.86 21.9657 119.037C21.4154 119.626 20.9798 120.111 20.6855 120.451L20.3416 120.834C20.3053 120.882 20.2629 120.926 20.2155 120.963C20.2433 120.91 20.2766 120.86 20.3149 120.814C20.3875 120.719 20.4906 120.577 20.6359 120.402C20.9148 120.046 21.3352 119.546 21.8778 118.946C23.2997 117.394 24.8024 115.918 26.3795 114.524C28.2253 112.893 29.9029 111.429 31.1219 110.37L32.5741 109.125L32.9562 108.796C33.0069 108.75 33.0635 108.712 33.1244 108.681Z" fill="#E0E0E0"/>
<path d="M24.5146 116.313C24.465 116.29 24.8471 115.403 25.2331 114.284C25.619 113.164 25.7987 112.216 25.8483 112.224C25.8086 112.948 25.6552 113.661 25.3936 114.337C25.2302 114.822 25.0388 115.296 24.8204 115.759C24.7427 115.956 24.6399 116.142 24.5146 116.313Z" fill="#E0E0E0"/>
<path d="M19.4436 123.459C19.3385 123.359 19.2437 123.249 19.1608 123.13L18.4347 122.202C17.8271 121.414 16.9826 120.325 16.0387 119.144C15.0948 117.964 14.2273 116.886 13.5967 116.114L12.8439 115.204C12.7476 115.096 12.6619 114.978 12.5879 114.853C12.6994 114.945 12.8018 115.047 12.8936 115.159C13.0847 115.365 13.3522 115.667 13.6579 116.045C14.3114 116.81 15.1865 117.853 16.1418 119.045C17.0972 120.237 17.915 121.338 18.4997 122.144C18.7939 122.546 19.027 122.878 19.1837 123.107C19.2825 123.215 19.3696 123.333 19.4436 123.459Z" fill="#E0E0E0"/>
<path d="M17.1698 120.555C16.7137 120.05 16.3883 119.441 16.2221 118.781C16.0435 118.203 15.971 117.597 16.0081 116.993H16.0807C16.0501 117.13 16.0234 117.203 16.0119 117.199C16.0004 117.195 16.0119 117.123 16.0119 116.981H16.0883C16.124 117.57 16.2252 118.154 16.3902 118.72C16.6035 119.35 16.8641 119.964 17.1698 120.555Z" fill="#E0E0E0"/>
<path d="M14.2502 116.882C14.0453 116.728 13.8219 116.599 13.5853 116.5C12.9912 116.321 12.3658 116.272 11.751 116.355C11.126 116.403 10.5061 116.503 9.89757 116.653C9.64697 116.73 9.39169 116.791 9.13328 116.836C9.35922 116.699 9.6056 116.598 9.86318 116.538C10.4706 116.349 11.0975 116.23 11.7319 116.183C12.3761 116.095 13.0319 116.166 13.6426 116.389C13.8954 116.479 14.1098 116.653 14.2502 116.882Z" fill="#E0E0E0"/>
<path d="M13.5547 115.992C13.5547 116.018 13.1726 115.835 12.542 115.61C10.8988 115.051 9.14069 114.92 7.43273 115.227C6.77927 115.346 6.38183 115.468 6.37419 115.438C6.45737 115.387 6.54747 115.348 6.64169 115.323C6.89216 115.237 7.14734 115.166 7.40598 115.109C8.26382 114.922 9.14428 114.86 10.0199 114.926C10.8965 114.994 11.7588 115.189 12.5802 115.503C12.8272 115.598 13.0684 115.708 13.3025 115.831C13.4745 115.927 13.5624 115.969 13.5547 115.992Z" fill="#E0E0E0"/>
<path d="M19.4092 112.224C19.1124 111.384 18.8686 110.526 18.6793 109.656C18.4323 108.799 18.2395 107.927 18.1022 107.046C18.404 107.885 18.6517 108.743 18.8436 109.614C19.088 110.471 19.2769 111.342 19.4092 112.224Z" fill="#E0E0E0"/>
<path d="M19.4436 112.224C19.2071 111.696 18.9338 111.185 18.6258 110.695C18.2791 110.229 17.8731 109.81 17.4182 109.449C17.5908 109.491 17.7509 109.573 17.8844 109.69C18.2276 109.94 18.5261 110.246 18.7672 110.596C19.1332 111.069 19.3667 111.631 19.4436 112.224Z" fill="#E0E0E0"/>
<path d="M19.4206 146.07C19.4206 146.07 19.3671 145.784 19.2372 145.283C19.0391 144.578 18.7742 143.894 18.4462 143.239C17.3042 141.101 15.8913 139.119 14.2426 137.342C13.3101 136.272 12.4045 135.267 11.6325 134.285C10.9419 133.436 10.3172 132.535 9.76382 131.591C9.39368 130.953 9.07915 130.284 8.82375 129.592C8.73585 129.348 8.67089 129.157 8.6365 129.023C8.6131 128.956 8.59771 128.887 8.59064 128.817C8.59064 128.817 8.69 129.088 8.88489 129.581C9.16961 130.26 9.50559 130.917 9.88993 131.545C10.4524 132.475 11.0821 133.363 11.7739 134.201C12.5382 135.156 13.4554 136.158 14.3916 137.228C16.2832 139.352 17.766 141.492 18.557 143.185C18.8881 143.849 19.1445 144.548 19.3213 145.268C19.3672 145.463 19.4029 145.661 19.4283 145.86C19.4343 145.93 19.4317 146.001 19.4206 146.07Z" fill="#E0E0E0"/>
<path d="M28.745 135.538C28.5886 135.638 28.4266 135.729 28.2597 135.81C27.816 136.057 27.3918 136.338 26.9909 136.65C26.3961 137.115 25.839 137.626 25.3248 138.179C24.7401 138.794 24.1401 139.513 23.5249 140.281C22.2982 141.809 21.1479 143.185 20.4677 144.274C20.12 144.813 19.8639 145.268 19.7034 145.589C19.623 145.758 19.5324 145.923 19.4321 146.082C19.4416 146.033 19.457 145.986 19.478 145.94C19.5162 145.853 19.5659 145.723 19.6423 145.558C19.858 145.095 20.1005 144.645 20.3684 144.209C21.3018 142.807 22.3149 141.46 23.4026 140.174C24.0179 139.41 24.6293 138.687 25.2216 138.068C25.7487 137.52 26.3201 137.017 26.9298 136.563C27.3403 136.256 27.7762 135.985 28.2329 135.752C28.3972 135.672 28.5272 135.622 28.6151 135.584C28.703 135.546 28.745 135.531 28.745 135.538Z" fill="#E0E0E0"/>
<path d="M28.9284 138.955C28.5885 139.029 28.2437 139.079 27.8966 139.104C27.0669 139.188 26.2468 139.349 25.4471 139.585C24.6569 139.842 23.9154 140.229 23.2536 140.732C22.7453 141.114 22.4893 141.446 22.4893 141.427C22.5273 141.341 22.5789 141.261 22.6421 141.19C22.803 140.989 22.9835 140.805 23.181 140.64C23.8352 140.096 24.5875 139.682 25.3974 139.421C26.2084 139.179 27.0443 139.03 27.889 138.978C28.234 138.937 28.582 138.929 28.9284 138.955Z" fill="#E0E0E0"/>
<path d="M22.7873 141.057C22.7338 141.026 23.2001 140.315 23.5516 139.36C23.9032 138.405 23.9682 137.549 24.0293 137.556C24.062 137.739 24.062 137.927 24.0293 138.11C23.9325 139.005 23.6232 139.863 23.1275 140.613C23.0403 140.78 22.9252 140.929 22.7873 141.057Z" fill="#E0E0E0"/>
<path d="M31.7678 126.363C31.7151 126.398 31.6587 126.428 31.5996 126.451L31.1143 126.673C30.9041 126.764 30.6443 126.879 30.35 127.032C30.0558 127.185 29.7195 127.338 29.3641 127.552L28.7985 127.873C28.6036 127.983 28.4164 128.117 28.2062 128.255C27.7896 128.507 27.3731 128.817 26.9298 129.134C25.981 129.847 25.0869 130.63 24.2548 131.476C23.4382 132.333 22.6859 133.249 22.0039 134.216C21.7021 134.671 21.4078 135.099 21.1709 135.523C21.0486 135.733 20.9225 135.928 20.8155 136.131L20.5136 136.704C20.3149 137.063 20.1696 137.411 20.0283 137.709C19.8869 138.007 19.7799 138.263 19.6958 138.473C19.6117 138.684 19.5467 138.836 19.4932 138.966C19.4723 139.026 19.444 139.082 19.4092 139.134C19.4189 139.073 19.4355 139.013 19.4589 138.955C19.5047 138.821 19.562 138.653 19.6346 138.45C19.7225 138.182 19.8259 137.919 19.9442 137.663C20.0741 137.361 20.2117 137.01 20.4066 136.643L20.7008 136.058C20.804 135.856 20.9263 135.657 21.0486 135.443C21.2817 135.015 21.5759 134.579 21.874 134.121C23.2229 132.147 24.8961 130.415 26.8228 129C27.2737 128.683 27.6979 128.373 28.1183 128.125C28.3285 127.999 28.5234 127.869 28.7221 127.743L29.2953 127.429C29.6545 127.223 30.0023 127.074 30.2965 126.933C30.5449 126.807 30.8001 126.694 31.0608 126.596L31.5576 126.405C31.6258 126.383 31.6963 126.369 31.7678 126.363Z" fill="#E0E0E0"/>
<path d="M24.3847 131.308C24.456 131.07 24.5987 130.859 24.7936 130.704C25.2478 130.309 25.8271 130.087 26.4292 130.078C27.0191 130.074 27.6037 130.189 28.1488 130.414C28.3799 130.485 28.5989 130.591 28.7985 130.727C28.5617 130.683 28.33 130.615 28.1068 130.525C27.5674 130.343 27.0023 130.249 26.433 130.246C25.8669 130.259 25.3197 130.452 24.87 130.796C24.6972 130.956 24.5351 131.127 24.3847 131.308Z" fill="#E0E0E0"/>
<path d="M23.2841 132.447C23.5016 131.965 23.657 131.458 23.7465 130.937C23.7847 130.404 23.7513 129.868 23.6472 129.344C23.7455 129.473 23.8111 129.624 23.8382 129.783C23.936 130.157 23.9645 130.546 23.9223 130.93C23.8778 131.317 23.7598 131.692 23.5746 132.034C23.4255 132.325 23.2994 132.458 23.2841 132.447Z" fill="#E0E0E0"/>
<path d="M11.2657 147.76C11.5217 152.273 12.8783 156.862 14.9725 161.517H24.0675C26.0623 156.931 27.3272 152.345 27.5527 147.76H11.2657Z" fill="#E0E0E0"/>
<path d="M26.0776 155.062C26.0776 155.112 23.0854 155.15 19.3901 155.15C15.6947 155.15 12.7025 155.112 12.7025 155.062C12.7025 155.013 15.6947 154.978 19.3901 154.978C23.0854 154.978 26.0776 155.016 26.0776 155.062Z" fill="#FAFAFA"/>
<path d="M25.8751 156.698C25.8751 156.744 23.0701 156.782 19.6079 156.782C16.1457 156.782 13.3292 156.744 13.3292 156.698C13.3292 156.652 16.1342 156.614 19.6003 156.614C23.0663 156.614 25.8751 156.652 25.8751 156.698Z" fill="#FAFAFA"/>
<path d="M15.1177 150.744C15.2357 152.143 15.2357 153.549 15.1177 154.948C15.0048 153.549 15.0048 152.143 15.1177 150.744Z" fill="#FAFAFA"/>
<path d="M19.9939 150.744C20.106 152.188 20.106 153.638 19.9939 155.081C19.8767 153.638 19.8767 152.187 19.9939 150.744Z" fill="#FAFAFA"/>
<path d="M24.5681 150.687C24.6802 152.16 24.6802 153.639 24.5681 155.112C24.451 153.639 24.451 152.16 24.5681 150.687Z" fill="#FAFAFA"/>
<path d="M27.2661 150.744C27.2661 150.79 23.7504 150.828 19.4206 150.828C15.0909 150.828 11.5752 150.79 11.5752 150.744C11.5752 150.698 15.0871 150.656 19.4206 150.656C23.7542 150.656 27.2661 150.675 27.2661 150.744Z" fill="#FAFAFA"/>
<path d="M40.0527 13.871H3.58835V66.7255H40.0527V13.871Z" fill="#E0E0E0"/>
<path d="M38.226 13.871H1.76169V66.7255H38.226V13.871Z" fill="#F5F5F5"/>
<path d="M33.6938 19.5955H6.29012V61.0009H33.6938V19.5955Z" fill="white"/>
<path d="M33.6938 60.9971C33.6938 60.9971 33.6938 60.9283 33.6938 60.7945C33.6938 60.6608 33.6938 60.4659 33.6938 60.2098C33.6938 59.6901 33.6938 58.9258 33.6938 57.917C33.6938 55.9336 33.6938 53.0408 33.6709 49.3913C33.6709 42.0885 33.6441 31.7515 33.625 19.5839L33.7167 19.6718H6.31687L6.41623 19.5725C6.41623 35.1908 6.41623 49.59 6.39712 60.9741L6.31687 60.8977L26.2649 60.9397L31.7754 60.9588H33.2199H33.7205C33.7205 60.9588 33.56 60.9588 33.2352 60.9588H31.806L26.3107 60.978L6.31687 61.02H6.23662V60.9397C6.23662 49.5556 6.23662 35.1564 6.23662 19.5381V19.4387H6.3398H33.7396H33.8314V19.5304C33.8314 31.7285 33.797 42.077 33.7855 49.4028C33.7855 53.0484 33.7855 55.9336 33.7626 57.9131C33.7626 58.8914 33.7626 59.6481 33.7626 60.164C33.7626 60.4162 33.7626 60.6073 33.7626 60.741C33.7626 60.8748 33.6938 60.9971 33.6938 60.9971Z" fill="#E0E0E0"/>
<path d="M38.3254 13.871C38.1377 14.2045 37.9203 14.5205 37.6757 14.8149C37.2516 15.3804 36.6516 16.1524 35.9637 16.9855C35.2759 17.8185 34.6377 18.5561 34.1638 19.0796C33.9221 19.3763 33.6534 19.6501 33.3613 19.8974C33.5659 19.5744 33.7987 19.27 34.0568 18.9879L35.8109 16.8594L37.5649 14.727C37.7941 14.4209 38.0484 14.1346 38.3254 13.871Z" fill="#E0E0E0"/>
<path d="M33.8352 60.8634C35.1962 63.0312 36.7987 65.0375 38.612 66.844Z" fill="white"/>
<path d="M38.612 66.8439C38.3096 66.6174 38.0306 66.3614 37.7789 66.0796C37.1434 65.4331 36.5414 64.7546 35.9752 64.0466C35.41 63.3386 34.8807 62.6027 34.3893 61.8416C34.1695 61.5353 33.9837 61.206 33.8352 60.8595C34.0781 61.1447 34.3015 61.446 34.5039 61.7614C34.909 62.3269 35.4708 63.0989 36.1319 63.9243C36.793 64.7497 37.4197 65.4529 37.8821 65.9841C38.149 66.2498 38.3931 66.5374 38.612 66.8439Z" fill="#E0E0E0"/>
<path d="M1.75404 66.672L6.53086 60.7793Z" fill="white"/>
<path d="M6.53086 60.787C5.81269 61.83 5.041 62.8351 4.21888 63.7983C3.44836 64.7989 2.6256 65.7581 1.75404 66.672C2.47287 65.6307 3.24454 64.6269 4.06603 63.6645C4.83716 62.6632 5.65989 61.7028 6.53086 60.787Z" fill="#E0E0E0"/>
<path d="M1.76169 13.871C2.5836 14.7515 3.35669 15.6764 4.07749 16.6415C4.85103 17.5654 5.5731 18.5311 6.24044 19.5344C5.41657 18.6545 4.64217 17.7295 3.92081 16.7638C3.14771 15.8406 2.42687 14.8748 1.76169 13.871Z" fill="#E0E0E0"/>
<path d="M25.1566 27.9988H15.9813V54.0497H25.1566V27.9988Z" fill="#E0E0E0"/>
<path d="M173.532 161.589C173.532 161.647 135.318 161.689 88.2336 161.689C41.1494 161.689 2.92723 161.647 2.92723 161.589C2.92723 161.532 41.1112 161.49 88.2336 161.49C135.356 161.49 173.532 161.536 173.532 161.589Z" fill="#263238"/>
<path d="M37.9433 11.0966H146.561C147.65 11.0966 148.696 11.5292 149.467 12.2996C150.238 13.0699 150.671 14.1147 150.672 15.2046V157.21C150.672 158.3 150.239 159.346 149.468 160.117C148.697 160.889 147.651 161.322 146.561 161.322H37.9433V11.0966Z" fill="#FF725E"/>
<g opacity="0.3">
<path d="M37.9433 11.0966H146.561C147.65 11.0966 148.696 11.5292 149.467 12.2996C150.238 13.0699 150.671 14.1147 150.672 15.2046V157.21C150.672 158.3 150.239 159.346 149.468 160.117C148.697 160.889 147.651 161.322 146.561 161.322H37.9433V11.0966Z" fill="black"/>
</g>
<path d="M147.55 15.7472H87.2859V161.318H147.55V15.7472Z" fill="#E0E0E0"/>
<path d="M37.4732 9.91187H138.421C139.511 9.91187 140.557 10.3451 141.328 11.1162C142.099 11.8873 142.533 12.9332 142.533 14.0238V157.21C142.533 158.3 142.099 159.346 141.328 160.117C140.557 160.889 139.511 161.322 138.421 161.322H37.4732V9.91187Z" fill="#FF725E"/>
<path d="M48.2726 161.593C48.2153 161.593 48.1733 127.636 48.1733 85.7563C48.1733 43.877 48.2153 9.91187 48.2726 9.91187C48.33 9.91187 48.372 43.8617 48.372 85.7563C48.372 127.651 48.3261 161.593 48.2726 161.593Z" fill="#263238"/>
<path d="M51.1082 161.593C51.0547 161.593 51.0088 127.636 51.0088 85.7563C51.0088 43.877 51.0547 9.91187 51.1082 9.91187C51.1617 9.91187 51.2075 43.8617 51.2075 85.7563C51.2075 127.651 51.1617 161.593 51.1082 161.593Z" fill="#263238"/>
<path d="M76.1807 66.1217L76.154 61.3793L73.8611 65.239H72.7338L70.4409 61.5054V66.1217H68.1022V57.1719H70.1849L73.3261 62.3385L76.3833 57.1719H78.466L78.4927 66.1217H76.1807Z" fill="white"/>
<path d="M86.2961 64.3791H82.4976L81.7945 66.1178H79.2112L83.1625 57.168H85.658L89.6208 66.1178H86.9878L86.2961 64.3791ZM85.5548 62.518L84.4083 59.6519L83.2619 62.518H85.5548Z" fill="white"/>
<path d="M98.8687 57.1719V66.1217H96.7822L92.8155 61.3525V66.1217H90.3354V57.1719H92.4334L96.3848 61.9411V57.1719H98.8687Z" fill="white"/>
<path d="M100.581 62.1321V57.1642H103.133V62.048C103.133 63.5766 103.772 64.1957 104.834 64.1957C105.896 64.1957 106.519 63.5842 106.519 62.048V57.1718H109.015V62.1397C109.015 64.8147 107.456 66.3089 104.811 66.3089C102.167 66.3089 100.581 64.8071 100.581 62.1321Z" fill="white"/>
<path d="M116.509 64.3791H112.722L112.018 66.1178H109.435L113.386 57.168H115.882L119.845 66.1178H117.212L116.509 64.3791ZM115.767 62.5142L114.621 59.6481L113.474 62.5142H115.767Z" fill="white"/>
<path d="M120.571 57.1719H123.101V64.1155H127.373V66.1217H120.571V57.1719Z" fill="white"/>
<path d="M71.9619 49.2805H72.4892V54.279H71.9619V49.2805Z" fill="white"/>
<path d="M78.294 49.2805V54.279H77.8584L74.6483 50.2397V54.2981H74.1172V49.2805H74.5528L77.7781 53.3351V49.2805H78.294Z" fill="white"/>
<path d="M79.4404 53.679L79.6468 53.2739C80.1046 53.6706 80.692 53.8854 81.2977 53.8777C82.2339 53.8777 82.6428 53.4955 82.6428 52.9949C82.6428 51.623 79.5627 52.4637 79.5627 50.6142C79.5627 49.8804 80.1359 49.2422 81.4047 49.2422C81.9539 49.236 82.4931 49.39 82.9562 49.6855L82.7766 50.1097C82.368 49.8436 81.8922 49.6992 81.4047 49.6932C80.4913 49.6932 80.0824 50.1021 80.0824 50.6027C80.0824 51.9708 83.1625 51.1453 83.1625 52.9644C83.1625 53.7019 82.5779 54.3286 81.2977 54.3286C80.6191 54.3524 79.9562 54.1206 79.4404 53.679Z" fill="white"/>
<path d="M85.2223 49.7353H83.4644V49.2805H87.5075V49.7353H85.7497V54.279H85.2223V49.7353Z" fill="white"/>
<path d="M91.7646 54.279L90.6182 52.6701C90.4914 52.6851 90.3638 52.6927 90.2361 52.6931H88.8794V54.279H88.3521V49.2805H90.2208C91.4933 49.2805 92.2653 49.9225 92.2653 50.9925C92.2861 51.3467 92.1831 51.6971 91.974 51.9836C91.7648 52.2702 91.4625 52.4751 91.1188 52.5631L92.3417 54.279H91.7646ZM91.7379 50.9925C91.7379 50.1938 91.2067 49.7353 90.2093 49.7353H88.8794V52.2421H90.2093C91.2067 52.2421 91.7379 51.7683 91.7379 51.004V50.9925Z" fill="white"/>
<path d="M93.4728 52.1505V49.2882H94.0002V52.1314C94.0002 53.316 94.5581 53.8587 95.5288 53.8587C96.4994 53.8587 97.0574 53.316 97.0574 52.1314V49.2882H97.5733V52.1505C97.5733 53.5873 96.809 54.3287 95.5211 54.3287C94.2333 54.3287 93.4728 53.5797 93.4728 52.1505Z" fill="white"/>
<path d="M98.7312 51.7683C98.7267 51.4264 98.792 51.0871 98.9232 50.7712C99.0543 50.4553 99.2485 50.1696 99.4939 49.9313C99.7393 49.6931 100.031 49.5074 100.35 49.3857C100.67 49.2639 101.011 49.2087 101.353 49.2232C101.692 49.2101 102.03 49.2683 102.345 49.394C102.661 49.5197 102.946 49.7102 103.183 49.9531L102.847 50.2894C102.655 50.0936 102.424 49.9399 102.17 49.8379C101.915 49.736 101.642 49.688 101.368 49.6971C100.819 49.6971 100.292 49.9153 99.9034 50.3037C99.515 50.6922 99.2967 51.219 99.2967 51.7683C99.2967 52.3177 99.515 52.8445 99.9034 53.2329C100.292 53.6213 100.819 53.8396 101.368 53.8396C101.643 53.8481 101.916 53.7992 102.171 53.6959C102.426 53.5926 102.656 53.4371 102.847 53.2396L103.183 53.5759C102.945 53.8201 102.659 54.0116 102.342 54.138C102.025 54.2644 101.686 54.3228 101.345 54.3096C101.004 54.3242 100.664 54.269 100.345 54.1474C100.026 54.0258 99.735 53.8404 99.4903 53.6024C99.2455 53.3645 99.052 53.0791 98.9215 52.7637C98.7909 52.4483 98.7262 52.1096 98.7312 51.7683Z" fill="white"/>
<path d="M105.22 49.7353H103.462V49.2805H107.505V49.7353H105.747V54.279H105.22V49.7353Z" fill="white"/>
<path d="M108.35 49.2805H108.866V54.279H108.338L108.35 49.2805Z" fill="white"/>
<path d="M110.062 51.7682C110.045 51.2459 110.185 50.7305 110.463 50.2879C110.74 49.8453 111.144 49.4958 111.622 49.284C112.1 49.0723 112.63 49.0079 113.144 49.0992C113.659 49.1905 114.135 49.4333 114.51 49.7965C114.886 50.1597 115.145 50.6268 115.254 51.138C115.362 51.6491 115.316 52.1811 115.121 52.6658C114.925 53.1505 114.59 53.5659 114.157 53.8587C113.724 54.1515 113.214 54.3085 112.691 54.3095C112.349 54.3246 112.008 54.2698 111.688 54.1486C111.368 54.0274 111.076 53.8422 110.83 53.6044C110.584 53.3665 110.389 53.0811 110.257 52.7654C110.125 52.4497 110.058 52.1104 110.062 51.7682ZM114.785 51.7682C114.791 51.351 114.673 50.9413 114.445 50.5915C114.218 50.2417 113.891 49.9676 113.507 49.804C113.123 49.6405 112.699 49.5949 112.29 49.6732C111.88 49.7514 111.502 49.9499 111.206 50.2433C110.909 50.5368 110.706 50.9119 110.623 51.321C110.541 51.73 110.582 52.1544 110.741 52.5401C110.9 52.9258 111.171 53.2553 111.518 53.4868C111.865 53.7182 112.274 53.8409 112.691 53.8395C112.967 53.8489 113.241 53.802 113.498 53.7015C113.755 53.6011 113.988 53.4492 114.185 53.2553C114.381 53.0614 114.535 52.8295 114.638 52.5738C114.742 52.318 114.792 52.0439 114.785 51.7682Z" fill="white"/>
<path d="M120.678 49.2805V54.279H120.242L117.028 50.2397V54.2981H116.509V49.2805H116.944L120.166 53.3351V49.2805H120.678Z" fill="white"/>
<g opacity="0.3">
<path d="M51.112 9.91187H48.2726V161.593H51.112V9.91187Z" fill="black"/>
</g>
<path d="M110.776 27.2422V9.91187H127.469V27.5632L119.283 35.7487L110.776 27.2422Z" fill="#455A64"/>
<path d="M144.023 15.7472C144.077 15.7472 144.122 47.985 144.122 87.7434C144.122 127.502 144.077 159.747 144.023 159.747C143.97 159.747 143.924 127.517 143.924 87.7434C143.924 47.9697 143.977 15.7472 144.023 15.7472Z" fill="#263238"/>
<path d="M145.743 15.7472C145.796 15.7472 145.842 47.985 145.842 87.7434C145.842 127.502 145.796 159.747 145.743 159.747C145.689 159.747 145.643 127.517 145.643 87.7434C145.643 47.9697 145.685 15.7472 145.743 15.7472Z" fill="#263238"/>
<path d="M144.035 36.6926H148.215L152.037 39.5893L148.609 43.0133H144.035V36.6926Z" fill="#455A64"/>
<path d="M153.638 49.1047H145.743V54.3631H153.638V49.1047Z" fill="#FF725E"/>
<g opacity="0.3">
<path d="M115.202 111.589L110.486 116.175C110.254 116.401 109.942 116.527 109.618 116.527C109.295 116.527 108.983 116.401 108.751 116.175L76.2686 85.0837C76.0297 84.8545 75.8914 84.5399 75.8843 84.2089C75.8771 83.8778 76.0016 83.5575 76.2304 83.3182L81.1525 78.1745C81.2669 78.0553 81.4039 77.9599 81.5554 77.8939C81.707 77.8279 81.8701 77.7927 82.0354 77.7902C82.2006 77.7877 82.3648 77.818 82.5182 77.8794C82.6717 77.9408 82.8115 78.032 82.9294 78.1478L115.217 109.786C115.338 109.903 115.434 110.044 115.499 110.199C115.564 110.355 115.597 110.522 115.596 110.691C115.594 110.859 115.559 111.026 115.491 111.18C115.423 111.335 115.325 111.474 115.202 111.589Z" fill="black"/>
</g>
<path d="M84.951 80.2611C84.5637 80.8007 84.1261 81.3023 83.644 81.7591C83.2072 82.2603 82.7221 82.7173 82.1957 83.1234C82.5818 82.5829 83.0195 82.0812 83.5027 81.6254C83.9384 81.1231 84.4236 80.6661 84.951 80.2611Z" fill="#263238"/>
<path d="M90.1138 85.2328C89.2924 86.277 88.3695 87.237 87.3585 88.0989C87.744 87.5567 88.1817 87.0537 88.6654 86.5971C89.1035 86.0971 89.5885 85.6402 90.1138 85.2328Z" fill="#263238"/>
<path d="M87.4158 82.5348C86.8702 83.2375 86.2738 83.8991 85.6312 84.5143C85.039 85.1719 84.4005 85.7862 83.7205 86.3524C84.2667 85.6515 84.8631 84.9912 85.5051 84.3767C86.0956 83.7163 86.7342 83.1007 87.4158 82.5348Z" fill="#263238"/>
<path d="M92.7238 87.8428C92.1787 88.5447 91.5822 89.2051 90.9392 89.8185C90.3476 90.4778 89.709 91.0934 89.0285 91.6604C90.1679 90.2967 91.4069 89.0194 92.7353 87.839L92.7238 87.8428Z" fill="#263238"/>
<path d="M95.1619 90.2848C94.7772 90.8264 94.3394 91.3282 93.855 91.7828C93.4189 92.2833 92.9351 92.7403 92.4105 93.1471C92.7942 92.6058 93.2307 92.104 93.7136 91.649C94.1504 91.1479 94.6355 90.6909 95.1619 90.2848Z" fill="#263238"/>
<path d="M97.7834 92.8948C97.2368 93.5942 96.6417 94.2544 96.0026 94.8705C95.4122 95.5297 94.7735 96.1441 94.0919 96.7086C94.6393 96.0086 95.2357 95.3484 95.8765 94.7329C96.4663 94.0743 97.1036 93.4599 97.7834 92.8948Z" fill="#263238"/>
<path d="M100.214 95.3329C99.3925 96.3771 98.4696 97.3371 97.4586 98.199C97.8441 97.6568 98.2818 97.1538 98.7656 96.6971C99.2013 96.1949 99.6865 95.7379 100.214 95.3329Z" fill="#263238"/>
<path d="M102.82 97.943C102.277 98.6456 101.682 99.306 101.039 99.9187C100.449 100.58 99.8106 101.195 99.1286 101.761C99.6742 101.058 100.271 100.396 100.913 99.7811C101.504 99.1237 102.141 98.5094 102.82 97.943Z" fill="#263238"/>
<path d="M105.262 100.381C104.441 101.425 103.518 102.385 102.507 103.247C102.893 102.706 103.331 102.203 103.814 101.745C104.253 101.246 104.738 100.79 105.262 100.381Z" fill="#263238"/>
<path d="M107.872 102.976C107.327 103.678 106.73 104.34 106.087 104.955C105.495 105.613 104.857 106.227 104.177 106.793C104.722 106.093 105.317 105.433 105.958 104.818C106.55 104.158 107.19 103.542 107.872 102.976Z" fill="#263238"/>
<path d="M110.31 105.433C109.928 105.975 109.491 106.477 109.007 106.931C108.569 107.431 108.084 107.888 107.559 108.295C107.943 107.753 108.381 107.252 108.866 106.797C109.302 106.297 109.786 105.84 110.31 105.433Z" fill="#263238"/>
<g opacity="0.3">
<path d="M98.0548 90.835L102.602 95.0998L105.659 92.0923C105.659 92.0923 110.578 93.6209 113.742 90.1281C116.616 86.9677 115.76 82.3705 115.76 82.3705L110.463 87.0441L105.98 82.5616L110.708 77.6586C109.226 77.2742 107.665 77.3163 106.206 77.7801C104.747 78.2439 103.449 79.1106 102.461 80.2802C99.6177 83.5016 101.085 87.7358 101.085 87.7358L98.0548 90.835Z" fill="black"/>
</g>
<g opacity="0.3">
<path d="M92.4066 103.281C92.2958 103.083 87.8668 99.0282 87.8668 99.0282L84.9854 101.848C84.9854 101.848 79.578 100.771 76.903 103.813C73.907 107.218 74.8853 111.57 74.8853 111.57L80.1818 106.897L84.6644 111.383L79.9372 116.282C81.4178 116.667 82.977 116.627 84.4358 116.166C85.8945 115.705 87.1937 114.842 88.1839 113.676C91.0271 110.454 89.5597 106.216 89.5597 106.216L92.4066 103.281Z" fill="black"/>
</g>
<path d="M129.811 144.572C129.811 144.63 115.465 144.672 97.7758 144.672C80.0863 144.672 65.7367 144.63 65.7367 144.572C65.7367 144.515 80.0786 144.473 97.7758 144.473C115.473 144.473 129.811 144.519 129.811 144.572Z" fill="white"/>
<path d="M119.122 147.626C119.122 147.679 109.687 147.725 98.0548 147.725C86.4222 147.725 76.9833 147.679 76.9833 147.626C76.9833 147.572 86.4184 147.526 98.0548 147.526C109.691 147.526 119.122 147.568 119.122 147.626Z" fill="white"/>
<path d="M100.298 150.557H95.2498V155.605H100.298V150.557Z" fill="#E0E0E0"/>
<path d="M42.3303 154.611L41.2679 162.338C41.2679 162.338 48.7618 166.011 48.7045 167.455L33.6556 165.927L34.802 153.824L42.3303 154.611Z" fill="#455A64"/>
<path d="M36.6783 161.215C36.5296 161.244 36.397 161.328 36.3061 161.449C36.2151 161.57 36.1721 161.721 36.1854 161.872C36.209 162.022 36.2892 162.157 36.4093 162.249C36.5294 162.342 36.6804 162.384 36.8312 162.369C36.9894 162.337 37.1303 162.249 37.227 162.12C37.3236 161.99 37.3691 161.83 37.3547 161.67C37.3133 161.515 37.2138 161.383 37.077 161.3C36.9403 161.218 36.7769 161.191 36.621 161.226" fill="#E0E0E0"/>
<g opacity="0.6">
<path d="M33.6556 165.938L33.8199 164.723L48.1886 166.634C48.1886 166.634 48.8306 166.993 48.7045 167.455L33.6556 165.938Z" fill="white"/>
</g>
<path d="M41.5201 162.285C41.5201 162.357 41.138 162.354 40.7558 162.556C40.3737 162.759 40.1482 163.045 40.0833 163.007C40.0183 162.969 40.1711 162.56 40.6412 162.323C41.1112 162.086 41.5431 162.208 41.5201 162.285Z" fill="#263238"/>
<path d="M43.0334 163.099C43.0334 163.171 42.7124 163.263 42.4296 163.55C42.1468 163.836 42.0475 164.157 41.9711 164.146C41.8946 164.134 41.8946 163.714 42.25 163.382C42.6054 163.049 43.0372 163.026 43.0334 163.099Z" fill="#263238"/>
<path d="M43.7366 165.078C43.6678 165.078 43.6028 164.696 43.8321 164.314C44.0614 163.932 44.4244 163.806 44.4474 163.871C44.4703 163.936 44.2372 164.127 44.0652 164.444C43.8932 164.761 43.813 165.078 43.7366 165.078Z" fill="#263238"/>
<path d="M41.566 160.496C41.5278 160.561 41.1838 160.428 40.8017 160.412C40.4195 160.397 40.0374 160.496 40.0145 160.432C39.9915 160.367 40.3202 160.133 40.8132 160.156C41.3061 160.179 41.608 160.443 41.566 160.496Z" fill="#263238"/>
<path d="M21.874 102.383C21.874 102.383 19.1111 121.995 20.5021 125.201C21.5759 127.682 23.479 128.759 25.9133 129.386C29.4252 130.288 35.058 130.934 35.058 130.934L36.9688 119.634L32.6773 118.697L36.6287 104.638L29.6239 99.8499L21.874 102.383Z" fill="#263238"/>
<path d="M36.6134 104.638L33.1511 158.815L42.7048 159.3L46.9581 132.424C46.9581 132.424 51.498 110.26 51.8075 107.55C52.117 104.841 51.8075 99.0856 51.8075 99.0856L36.6134 104.638Z" fill="#263238"/>
<path d="M36.3421 108.869C36.3461 108.904 36.3461 108.94 36.3421 108.976C36.3421 109.056 36.3421 109.159 36.3421 109.289C36.3421 109.575 36.3191 109.977 36.3 110.485C36.2503 111.524 36.1739 113.03 36.0631 114.887C35.8453 118.602 35.4822 123.734 35.1077 129.409C34.9358 132.244 34.7714 134.942 34.6224 137.403C34.4734 139.864 34.2059 142.062 34.0224 143.9C33.839 145.738 33.6976 147.251 33.6174 148.287C33.5791 148.795 33.5486 149.193 33.5256 149.483C33.5256 149.609 33.5256 149.712 33.4989 149.793C33.5044 149.827 33.5044 149.862 33.4989 149.896C33.4989 149.896 33.4989 149.861 33.4989 149.793C33.4989 149.724 33.4989 149.605 33.4989 149.479C33.4989 149.204 33.5256 148.803 33.5562 148.283C33.6135 147.244 33.7244 145.738 33.8963 143.885C34.0683 142.031 34.2785 139.826 34.4543 137.388C34.63 134.95 34.7294 132.229 34.9243 129.397C35.3064 123.738 35.6886 118.617 35.937 114.876C36.0631 113.03 36.1663 111.532 36.2351 110.477C36.2733 109.969 36.3 109.572 36.3191 109.281C36.3191 109.155 36.3191 109.052 36.3459 108.972C36.3411 108.938 36.3398 108.903 36.3421 108.869Z" fill="#455A64"/>
<path d="M34.1141 113.577C34.1135 113.72 34.0942 113.862 34.0568 114.001C34.0033 114.272 33.9192 114.666 33.8046 115.147C33.5791 116.106 33.2161 117.44 32.7308 118.854C32.2454 120.268 31.7295 121.548 31.3245 122.45C31.1219 122.901 30.9423 123.264 30.8239 123.509C30.7697 123.645 30.6977 123.773 30.6099 123.891C30.6435 123.751 30.6922 123.615 30.7551 123.486C30.8735 123.188 31.0226 122.828 31.1945 122.404C31.5767 121.491 32.0582 120.222 32.5435 118.797C33.0288 117.371 33.4072 116.068 33.69 115.117L33.9995 113.993C34.021 113.85 34.0594 113.71 34.1141 113.577Z" fill="#455A64"/>
<path d="M30.7245 54.6344L28.4316 56.4649C28.4316 56.4649 21.1327 57.768 20.5098 58.9068L22.8829 73.5506L24.7248 86.1156C24.7248 86.1156 21.9657 93.5254 21.8893 96.6513C21.8129 99.7773 21.8893 102.384 21.8893 102.384H23.2574C26.4439 102.384 29.5068 103.617 31.806 105.823L34.3243 103.53L34.8173 107.879C34.8173 107.879 44.6996 108.486 47.2141 106.579C49.7286 104.673 53.1412 100.629 53.1412 100.629C53.1412 100.629 53.7297 90.4873 50.7222 85.3666C47.7147 80.2458 46.9581 79.1834 46.9581 79.1834C46.9581 79.1834 48.0281 70.3482 48.0281 70.0425C48.0281 69.7368 48.9414 57.6839 48.9414 57.6839L41.3596 55.7732L39.1661 54.0956L30.7245 54.6344Z" fill="#455A64"/>
<g opacity="0.3">
<path d="M24.4573 86.8225C24.9246 87.2536 25.4828 87.5743 26.0907 87.7608C26.6985 87.9473 27.3405 87.995 27.9692 87.9001C28.8138 87.7855 29.6277 87.4225 30.4838 87.4339C31.7296 87.453 32.8034 88.2479 33.8887 88.8555C36.2507 90.1662 38.9732 90.6783 41.6501 90.3153C44.7072 89.8911 47.5083 88.3434 50.1069 86.6658C50.3036 86.5542 50.4783 86.4079 50.6228 86.234C50.755 86.0271 50.8194 85.7842 50.8071 85.539C50.7948 85.2938 50.7063 85.0585 50.554 84.8659C50.24 84.4836 49.7942 84.2328 49.3044 84.1628C48.4331 83.9984 47.5427 84.2124 46.6714 84.3538C44.81 84.6603 42.9096 84.6435 41.0539 84.3042C38.6999 83.8762 36.4682 82.9361 34.0836 82.6189C31.4142 82.2626 28.6991 82.704 26.2802 83.8876C25.7511 84.1169 25.274 84.451 24.8777 84.8697C24.4877 85.4407 24.3368 86.1417 24.4573 86.8225Z" fill="black"/>
</g>
<path d="M32.704 62.5984C32.7098 62.6364 32.7098 62.675 32.704 62.713C32.704 62.8009 32.704 62.9156 32.727 63.057L32.8187 64.3792C32.8798 65.5256 32.9715 67.1956 33.0823 69.2324C33.2849 73.3443 33.5677 79.0039 33.8772 85.252C33.9498 86.815 34.0224 88.3435 34.0912 89.8186C34.16 91.2937 34.2326 92.7153 34.2288 94.0757C34.2288 94.7559 34.2288 95.4209 34.1676 96.0629C34.1065 96.7049 34.0454 97.324 34.053 97.9239C34.053 99.1239 34.1524 100.255 34.1332 101.279C34.1141 102.303 34.2861 103.22 34.3702 104.031C34.4542 104.841 34.5421 105.532 34.6109 106.106C34.6797 106.679 34.7218 107.107 34.7561 107.42C34.7561 107.562 34.7791 107.676 34.7867 107.764C34.7901 107.804 34.7901 107.843 34.7867 107.883C34.7743 107.844 34.7653 107.804 34.76 107.764C34.76 107.68 34.7332 107.565 34.7103 107.424L34.5307 106.117L34.2555 104.042C34.16 103.232 34.0377 102.315 33.988 101.283C33.988 100.251 33.8963 99.1392 33.8849 97.9239C33.8849 97.3163 33.9498 96.6896 33.988 96.0514C34.0262 95.4132 34.0454 94.7521 34.0415 94.0757C34.0415 92.7229 33.9651 91.3014 33.8925 89.8263C33.8199 88.3512 33.7473 86.8226 33.6747 85.2596C33.3842 79.0116 33.1244 73.352 32.9371 69.2401C32.8531 67.1994 32.7843 65.5447 32.7384 64.383C32.7384 63.8213 32.704 63.378 32.6926 63.0646C32.6926 62.9194 32.6926 62.8086 32.6926 62.7207C32.6926 62.6328 32.704 62.5984 32.704 62.5984Z" fill="#263238"/>
<path d="M23.3338 61.6507L23.1122 76.99L24.2586 79.665L23.3071 86.9716L19.4436 84.8011C18.5029 84.2826 17.7354 83.4991 17.2367 82.5478C16.7379 81.5965 16.53 80.5196 16.6386 79.451V79.4013C16.994 76.4282 17.5825 71.6896 18.0755 68.6822C18.8398 64.0276 19.3748 60.3667 20.5174 58.9183L23.3338 61.6507Z" fill="#455A64"/>
<path d="M48.9529 57.684C48.9529 57.684 51.1655 57.2292 52.3119 62.5678C53.4584 67.9063 54.3717 77.2116 54.3717 77.2116C54.488 77.2418 54.5955 77.299 54.6855 77.3786C54.7755 77.4582 54.8455 77.5578 54.8898 77.6695C54.9341 77.7812 54.9515 77.9017 54.9404 78.0213C54.9294 78.141 54.8904 78.2563 54.8264 78.358C54.8264 78.358 54.6736 83.3833 54.0621 83.9909L47.6918 80.2305L46.9657 79.172L48.9529 57.684Z" fill="#455A64"/>
<path d="M23.3071 86.8226L31.8633 85.871L32.5206 81.7094L24.1287 81.0369L23.3071 86.8226Z" fill="#9D6054"/>
<path d="M34.1753 60.7373C34.0927 60.8918 33.9968 61.0389 33.8887 61.1768C33.667 61.4787 33.3842 61.8608 33.0518 62.3232L31.7907 64.0161C31.7693 64.047 31.7416 64.0729 31.7092 64.0921C31.6769 64.1112 31.6408 64.1231 31.6034 64.1269C31.5318 64.1283 31.4617 64.1054 31.4047 64.062C31.3186 63.9975 31.2381 63.9259 31.164 63.848C31.0042 63.7047 30.8536 63.5515 30.713 63.3894C30.4131 63.0527 30.1409 62.6923 29.8991 62.3117C29.0614 60.9628 28.6289 59.4016 28.6533 57.8139C28.6589 57.3369 28.714 56.8618 28.8176 56.3961C28.8513 56.2249 28.9012 56.0573 28.9666 55.8955C28.8622 56.5273 28.8047 57.166 28.7947 57.8062C28.7925 59.8129 29.5268 61.7506 30.8583 63.2518C30.9956 63.4095 31.141 63.56 31.2939 63.7027C31.3612 63.7732 31.4327 63.8395 31.5079 63.9015C31.5843 63.9435 31.5996 63.9473 31.6493 63.9015C32.1232 63.2709 32.5703 62.7092 32.9371 62.2391L33.8275 61.1309C33.9285 60.9872 34.0451 60.8552 34.1753 60.7373Z" fill="#263238"/>
<path d="M41.3711 55.7771C41.3883 55.8275 41.3961 55.8806 41.394 55.9338C41.4015 56.0814 41.4015 56.2294 41.394 56.3771C41.3853 56.9269 41.303 57.4731 41.1494 58.0012C40.9091 58.7758 40.6128 59.5318 40.2629 60.2635C39.8505 61.1666 39.3781 62.0411 38.8489 62.8812C38.57 63.3321 38.291 63.7639 38.0197 64.1805C37.9509 64.2837 37.8859 64.3868 37.8171 64.4862C37.7519 64.5984 37.6751 64.7034 37.5879 64.7996C37.555 64.8278 37.5167 64.8489 37.4752 64.8614C37.4337 64.8739 37.3901 64.8776 37.3471 64.8722C37.2707 64.8591 37.2 64.8231 37.1446 64.769C37.0599 64.6831 36.9831 64.5897 36.9153 64.49L35.4937 62.5525L34.5269 61.238C34.401 61.0816 34.2897 60.914 34.1944 60.7373C34.3325 60.8782 34.4603 61.0289 34.5765 61.1883C34.8364 61.5207 35.1803 61.9526 35.5931 62.4685L37.0834 64.3792C37.2172 64.5588 37.3777 64.7613 37.4656 64.6543C37.5379 64.5694 37.6031 64.4787 37.6605 64.383L37.8592 64.0735C38.1305 63.6569 38.4056 63.2251 38.6808 62.778C39.2061 61.9456 39.6796 61.0816 40.0985 60.1909C40.4511 59.4679 40.7587 58.7239 41.0195 57.963C41.2269 57.2518 41.345 56.5175 41.3711 55.7771Z" fill="#263238"/>
<path d="M29.4252 61.7232C29.4252 61.7576 29.0201 61.8264 28.4049 62.1053C27.5906 62.4852 26.8888 63.0698 26.368 63.8021L26.3107 63.8823L26.2267 63.8212C26.0148 63.6641 25.7912 63.5236 25.5579 63.4008C24.605 62.8925 23.5209 62.6834 22.4472 62.8008C22.0054 62.8724 21.5678 62.9681 21.1365 63.0874C21.2351 63.0154 21.3448 62.9599 21.4613 62.9231C21.7734 62.8022 22.0975 62.7151 22.4281 62.6633C23.539 62.4991 24.6732 62.6988 25.6611 63.2327C25.9013 63.3642 26.1312 63.5137 26.3489 63.6798H26.2075C26.7508 62.9237 27.4947 62.3347 28.3552 61.9792C28.6023 61.8773 28.8581 61.798 29.1195 61.7423C29.2194 61.7176 29.323 61.7111 29.4252 61.7232Z" fill="#263238"/>
<path d="M48.6815 62.6672C48.2437 62.4312 47.757 62.3004 47.26 62.285C46.7231 62.2753 46.1899 62.3754 45.6932 62.5793C45.0833 62.8397 44.4987 63.1557 43.9467 63.5232L43.7633 63.6378L43.6869 63.6875L43.6334 63.6149C42.9072 62.7132 41.8532 62.136 40.7023 62.0099C40.227 61.9738 39.7493 61.9879 39.2769 62.0519C39.398 61.9953 39.5268 61.9566 39.6591 61.9373C40.0085 61.8665 40.366 61.8447 40.7214 61.8723C41.2513 61.9139 41.7691 62.0511 42.25 62.2774C42.8474 62.5594 43.3708 62.9768 43.7786 63.4964L43.6449 63.4735L43.8283 63.355C44.3901 62.9781 44.9894 62.6605 45.6167 62.4073C46.1383 62.204 46.6971 62.1142 47.2561 62.1436C47.6331 62.163 48.0016 62.262 48.3376 62.434C48.4678 62.4858 48.5852 62.5653 48.6815 62.6672Z" fill="#263238"/>
<path d="M46.6179 95.952C46.6179 95.952 46.5683 96.0017 46.4689 96.0781L46.0218 96.403L45.6932 96.6322C45.5709 96.7125 45.4295 96.7889 45.2843 96.8768C44.9547 97.0827 44.6141 97.2702 44.2639 97.4386L43.6563 97.7328C43.4423 97.8322 43.213 97.9124 42.9761 98.0118C42.4758 98.2121 41.9656 98.3868 41.4475 98.5353C39.0576 99.2137 36.5484 99.3624 34.095 98.971C33.5333 98.864 32.9983 98.7761 32.5091 98.6309C32.2646 98.5659 32.0276 98.5124 31.8022 98.436L31.164 98.2143C30.7967 98.0899 30.4369 97.9444 30.0863 97.7787C29.9296 97.7099 29.7844 97.6488 29.6507 97.5838L29.2991 97.3927L28.8138 97.1252C28.7068 97.0603 28.6495 97.0259 28.6533 97.0182C28.7158 97.0354 28.776 97.0597 28.8329 97.0908L29.3335 97.3239L29.6927 97.4997C29.8226 97.557 29.9717 97.6144 30.1322 97.6793C30.4455 97.8016 30.7971 97.9621 31.2098 98.0844L31.848 98.2908C32.0697 98.3595 32.3066 98.4092 32.5512 98.4704C33.0365 98.6079 33.5677 98.6882 34.1218 98.7914C35.3342 98.9609 36.56 99.0159 37.7827 98.9557C39.0057 98.8737 40.2177 98.6728 41.4017 98.3557C41.9405 98.1914 42.4564 98.05 42.9302 97.8551C43.1634 97.7634 43.3926 97.687 43.6066 97.5914L44.2143 97.3125C44.5964 97.1443 44.9403 96.9303 45.2384 96.7813C45.3874 96.6972 45.5288 96.6284 45.6549 96.552L45.9874 96.338L46.4574 96.0437C46.5073 96.0071 46.5611 95.9764 46.6179 95.952Z" fill="#263238"/>
<path d="M44.283 90.5637C44.1472 90.7217 43.9989 90.8687 43.8397 91.0032C43.6945 91.1408 43.5111 91.3089 43.2856 91.4847C43.0602 91.6605 42.8156 91.8668 42.5213 92.077C42.2271 92.2872 41.9061 92.5165 41.5392 92.7343C41.1724 92.9521 40.7749 93.1776 40.366 93.4031C38.5235 94.3581 36.5278 94.9828 34.4695 95.2488C33.9957 95.2985 33.5447 95.3558 33.1206 95.3673C32.6964 95.3788 32.3028 95.3941 31.9436 95.3864C31.5843 95.3788 31.2557 95.3558 30.9729 95.3367C30.7282 95.3243 30.4845 95.2975 30.243 95.2565C30.0356 95.236 29.8299 95.2002 29.6278 95.1495C29.8359 95.1401 30.0444 95.1503 30.2507 95.18C30.4494 95.18 30.6939 95.2221 30.9767 95.2259C31.2595 95.2297 31.5843 95.2603 31.9436 95.2259C32.3028 95.1915 32.7078 95.2259 33.1129 95.1839C33.518 95.1418 33.9766 95.1036 34.4466 95.0463C36.4792 94.766 38.4512 94.15 40.282 93.2235C40.6985 93.0018 41.0998 92.7993 41.4552 92.5738C41.8106 92.3483 42.143 92.1458 42.4411 91.9433C42.7392 91.7407 42.9914 91.5611 43.2054 91.3777C43.4194 91.1943 43.6257 91.0567 43.7786 90.9268C43.9364 90.792 44.1052 90.6706 44.283 90.5637Z" fill="#263238"/>
<path d="M21.4384 62.9957C21.4878 63.1614 21.5198 63.3317 21.5339 63.504C21.5836 63.8861 21.6447 64.3371 21.7212 64.8988C21.8817 66.114 22.1033 67.719 22.3288 69.4846C22.5542 71.2501 22.8141 72.8627 22.9899 74.0703C23.0701 74.6282 23.1351 75.0945 23.1886 75.4651C23.2191 75.6342 23.2357 75.8055 23.2383 75.9772C23.1784 75.8153 23.1362 75.6475 23.1122 75.4766C23.0434 75.1518 22.9555 74.6779 22.8485 74.0932C22.6421 72.9239 22.3784 71.3036 22.1301 69.5075C21.8817 67.7114 21.6944 66.0682 21.5798 64.8988C21.5224 64.3065 21.4804 63.8288 21.4575 63.4963C21.4376 63.3303 21.4312 63.1628 21.4384 62.9957Z" fill="#263238"/>
<path d="M48.9414 59.9004C48.9505 59.965 48.9505 60.0306 48.9414 60.0953C48.9414 60.2443 48.9414 60.4278 48.9108 60.6494C48.8803 61.1309 48.8267 61.8302 48.7541 62.6901C48.6089 64.4097 48.372 66.7828 48.0625 69.4005C47.7529 72.0182 47.4205 74.3684 47.1606 76.0881C47.0307 76.9403 46.9198 77.6167 46.8358 78.1058C46.7937 78.3236 46.7593 78.5071 46.7326 78.6523C46.7243 78.7174 46.7089 78.7815 46.6867 78.8434C46.6775 78.7787 46.6775 78.7131 46.6867 78.6485C46.6867 78.4994 46.725 78.316 46.7517 78.0943C46.8167 77.5861 46.9046 76.9021 47.0154 76.069C47.2408 74.357 47.5466 71.9915 47.8599 69.3776C48.1733 66.7637 48.4255 64.3906 48.6242 62.6748C48.7159 61.8417 48.7885 61.1462 48.8459 60.6456C48.8726 60.4239 48.8955 60.2405 48.9108 60.0915C48.9124 60.0267 48.9227 59.9624 48.9414 59.9004Z" fill="#263238"/>
<path d="M50.3018 72.2054L39.3686 78.7936L36.5446 77.9988L23.5822 75.4995L20.9034 84.0023L31.1028 84.9653L35.6007 87.1206L37.7751 86.1805L47.26 79.6649L50.3018 72.2054Z" fill="#FF725E"/>
<path d="M35.5969 87.0901C35.7393 86.6712 35.9104 86.2626 36.1089 85.8673C36.4452 85.103 36.9076 84.0903 37.4006 82.9477C37.8936 81.805 38.3292 80.758 38.6388 80.0013C38.7909 79.5858 38.9709 79.1811 39.1776 78.7899C39.1647 78.9094 39.1351 79.0264 39.0897 79.1377C39.0209 79.3555 38.9101 79.6689 38.7725 80.0548C38.4935 80.8191 38.0808 81.8776 37.584 83.0241C37.0872 84.1705 36.6057 85.1947 36.2389 85.9284C36.0554 86.3105 35.8988 86.5857 35.7879 86.7882C35.7377 86.8968 35.6735 86.9983 35.5969 87.0901Z" fill="#263238"/>
<path d="M35.2912 80.8649C35.3749 80.3729 35.5253 79.8946 35.7383 79.4433C35.8901 78.9692 36.1034 78.5169 36.3726 78.0981C36.2881 78.5887 36.1377 79.0656 35.9255 79.5159C35.7721 79.9906 35.5589 80.4439 35.2912 80.8649Z" fill="#263238"/>
<path d="M37.8592 78.3695C37.8592 78.3695 38.1878 77.0625 39.1776 76.5543C40.1673 76.046 48.3758 71.7775 48.3758 71.7775L49.3503 72.7787L39.3686 78.7937L37.8592 78.3695Z" fill="#E0E0E0"/>
<path d="M24.7095 75.7174L26.3719 74.8843C26.3719 74.8843 31.0799 74.3761 33.8008 74.8843C36.5217 75.3926 37.9471 76.9135 37.8592 78.3695L24.7095 75.7174Z" fill="#E0E0E0"/>
<path d="M44.0041 79.2294C43.1585 79.5917 42.4842 80.2647 42.1201 81.1095C41.4666 82.5579 41.0348 83.2839 40.2361 83.7845C39.4374 84.2852 39.0056 84.652 38.0655 84.2164C37.1255 83.7807 35.5969 82.3591 34.8746 82.2445C34.4466 82.1757 34.2976 82.8406 34.2976 82.8406C34.2976 82.8406 32.4174 81.5872 31.7639 81.8165C31.1105 82.0458 31.6913 82.5502 32.1461 83.0585C32.4154 83.3748 32.657 83.7136 32.8683 84.0712C33.0097 84.0138 31.5614 82.6496 30.6672 82.9247C30.5934 82.9375 30.5231 82.966 30.4613 83.0083C30.3994 83.0505 30.3473 83.1056 30.3086 83.1697C30.2698 83.2338 30.2453 83.3055 30.2366 83.38C30.2279 83.4544 30.2353 83.5298 30.2583 83.6011L31.3474 84.4036C31.3474 84.4036 30.7704 85.4392 31.2748 85.6571C31.7792 85.8749 35.4058 88.4085 36.2007 88.4085C36.9955 88.4085 40.6183 89.062 42.1392 88.6989C43.6601 88.3359 45.3569 87.8162 45.3569 87.8162C45.3569 87.8162 51.3375 85.8749 53.145 83.5591L47.7147 80.2268C47.7147 80.2268 44.0958 84.9348 43.8933 84.4304C43.5766 83.5756 43.5012 82.6501 43.6754 81.7554C43.8589 80.6777 44.6308 78.8778 44.0041 79.2294Z" fill="#9D6054"/>
<path d="M38.9865 86.3028C38.6927 86.2787 38.4067 86.1956 38.1458 86.0583C37.5222 85.7373 36.9231 85.3707 36.3535 84.9615C35.7503 84.5904 35.2012 84.1377 34.7218 83.6163C34.509 83.4083 34.3616 83.1427 34.2976 82.8521C34.4602 83.0875 34.6363 83.3133 34.8249 83.5285C35.3241 84.0076 35.8723 84.4328 36.4605 84.7972C37.156 85.2443 37.7331 85.699 38.2069 85.9436C38.6808 86.1882 38.998 86.2723 38.9865 86.3028Z" fill="#724A44"/>
<path d="M37.7522 87.8315C37.4793 87.7141 37.2225 87.5626 36.9879 87.3806C36.5293 87.0787 35.9102 86.6392 35.2453 86.1271C34.5804 85.615 34.0033 85.1221 33.5944 84.7552C33.3615 84.5689 33.1511 84.356 32.9677 84.1208C33.2242 84.2707 33.4649 84.4461 33.6861 84.6444L35.3676 85.9704L37.0719 87.2659C37.317 87.4312 37.5449 87.6207 37.7522 87.8315Z" fill="#724A44"/>
<path d="M34.7294 87.3499C34.6835 87.3881 34.0339 86.5856 33.0785 85.7831C32.1232 84.9806 31.2442 84.4418 31.2748 84.3921C31.9893 84.6855 32.6445 85.1063 33.2085 85.6341C33.8132 86.1113 34.3282 86.6923 34.7294 87.3499Z" fill="#724A44"/>
<path d="M35.83 66.0606C35.8026 65.9765 35.7796 65.891 35.7612 65.8045C35.6946 65.5856 35.5609 65.3931 35.379 65.2542C35.2296 65.1463 35.0533 65.0815 34.8694 65.067C34.6856 65.0525 34.5013 65.0889 34.3367 65.1722C34.1722 65.2554 34.0337 65.3824 33.9365 65.539C33.8393 65.6957 33.787 65.8762 33.7855 66.0606C33.7875 66.2623 33.8502 66.4587 33.9654 66.6244C34.0806 66.79 34.2429 66.9171 34.4313 66.9892C34.5882 67.0472 34.7569 67.066 34.9227 67.044C35.0885 67.022 35.2465 66.9599 35.3829 66.8631C35.5647 66.7242 35.6984 66.5317 35.765 66.3128C35.7823 66.2273 35.8053 66.143 35.8338 66.0606C35.8338 66.0606 35.8682 66.1561 35.8338 66.3319C35.7887 66.5852 35.6528 66.8135 35.4517 66.9739C35.2998 67.0957 35.1194 67.1767 34.9275 67.2095C34.7356 67.2423 34.5386 67.2256 34.3549 67.1612C34.1269 67.0805 33.9295 66.9312 33.7899 66.7338C33.6503 66.5364 33.5753 66.3005 33.5753 66.0587C33.5753 65.8168 33.6503 65.581 33.7899 65.3835C33.9295 65.1861 34.1269 65.0368 34.3549 64.9562C34.5386 64.8917 34.7356 64.8751 34.9275 64.9078C35.1194 64.9406 35.2998 65.0217 35.4517 65.1434C35.652 65.3046 35.7877 65.5325 35.8338 65.7854C35.8758 65.9612 35.8414 66.0606 35.83 66.0606Z" fill="#263238"/>
<path d="M36.2159 73.3519C36.2159 73.3519 36.193 73.2563 36.1433 73.0958C36.0755 72.8785 35.942 72.6876 35.7612 72.5494C35.6469 72.4639 35.5156 72.4039 35.3762 72.3736C35.2368 72.3432 35.0924 72.3431 34.9529 72.3732C34.8135 72.4034 34.6821 72.4631 34.5677 72.5484C34.4533 72.6337 34.3585 72.7426 34.2898 72.8676C34.221 72.9927 34.1799 73.1311 34.1692 73.2734C34.1585 73.4157 34.1785 73.5586 34.2278 73.6925C34.2771 73.8264 34.3545 73.9482 34.4549 74.0497C34.5553 74.1511 34.6762 74.2298 34.8096 74.2805C34.9664 74.3395 35.1352 74.3588 35.3012 74.3368C35.4672 74.3148 35.6252 74.2521 35.7612 74.1544C35.942 74.0161 36.0755 73.8252 36.1433 73.6079C36.193 73.4474 36.1968 73.3519 36.2159 73.3519C36.24 73.4407 36.24 73.5344 36.2159 73.6232C36.1692 73.8759 36.0337 74.1036 35.8338 74.2652C35.6819 74.387 35.5015 74.468 35.3097 74.5008C35.1178 74.5336 34.9207 74.5169 34.737 74.4525C34.5086 74.3728 34.3106 74.2241 34.1705 74.0269C34.0304 73.8297 33.9552 73.5938 33.9552 73.3519C33.9552 73.11 34.0304 72.8741 34.1705 72.6769C34.3106 72.4797 34.5086 72.3309 34.737 72.2513C34.9204 72.1863 35.1173 72.169 35.3091 72.2011C35.501 72.2332 35.6816 72.3136 35.8338 72.4347C36.0324 72.5974 36.1676 72.8246 36.2159 73.0767C36.2401 73.1668 36.2401 73.2617 36.2159 73.3519Z" fill="#263238"/>
<path d="M36.9306 90.6288C36.9016 90.5461 36.8774 90.4619 36.8579 90.3766C36.7928 90.157 36.6588 89.9641 36.4758 89.8263C36.3401 89.7294 36.1828 89.6673 36.0176 89.6453C35.8524 89.6234 35.6843 89.6422 35.5281 89.7002C35.3386 89.7711 35.1752 89.8982 35.0599 90.0645C34.9446 90.2308 34.8828 90.4283 34.8828 90.6307C34.8828 90.833 34.9446 91.0306 35.0599 91.1969C35.1752 91.3632 35.3386 91.4903 35.5281 91.5612C35.6843 91.6192 35.8524 91.638 36.0176 91.616C36.1828 91.594 36.3401 91.5319 36.4758 91.4351C36.658 91.2966 36.7918 91.1039 36.8579 90.8848C36.9115 90.7281 36.9153 90.6288 36.9306 90.6288C36.9458 90.6288 36.965 90.7281 36.9306 90.9039C36.8838 91.1566 36.7483 91.3843 36.5484 91.5459C36.3965 91.6677 36.2162 91.7488 36.0243 91.7815C35.8324 91.8143 35.6353 91.7976 35.4517 91.7332C35.2237 91.6526 35.0263 91.5033 34.8867 91.3058C34.747 91.1084 34.6721 90.8725 34.6721 90.6307C34.6721 90.3889 34.747 90.153 34.8867 89.9556C35.0263 89.7581 35.2237 89.6088 35.4517 89.5282C35.6353 89.4637 35.8324 89.4471 36.0243 89.4799C36.2162 89.5126 36.3965 89.5937 36.5484 89.7154C36.7491 89.8763 36.8848 90.1044 36.9306 90.3575C36.965 90.5332 36.942 90.6326 36.9306 90.6288Z" fill="#263238"/>
<path d="M36.7662 97.4347C36.7662 97.4347 36.7433 97.3354 36.6936 97.1787C36.6261 96.9602 36.4926 96.768 36.3115 96.6284C36.1751 96.5316 36.0172 96.4694 35.8513 96.4475C35.6855 96.4255 35.5168 96.4443 35.3599 96.5023C35.1704 96.5732 35.0071 96.7003 34.8918 96.8666C34.7765 97.0329 34.7147 97.2305 34.7147 97.4328C34.7147 97.6352 34.7765 97.8327 34.8918 97.999C35.0071 98.1653 35.1704 98.2924 35.3599 98.3633C35.5168 98.4213 35.6855 98.4401 35.8513 98.4182C36.0172 98.3962 36.1751 98.3341 36.3115 98.2372C36.4933 98.0983 36.627 97.9059 36.6936 97.6869C36.7433 97.5303 36.7471 97.4309 36.7662 97.4347C36.7906 97.5235 36.7906 97.6172 36.7662 97.706C36.7189 97.9585 36.5834 98.186 36.3841 98.3481C36.2322 98.4698 36.0518 98.5509 35.8599 98.5836C35.6681 98.6164 35.471 98.5998 35.2873 98.5353C35.0593 98.4547 34.862 98.3054 34.7223 98.1079C34.5827 97.9105 34.5078 97.6746 34.5078 97.4328C34.5078 97.191 34.5827 96.9551 34.7223 96.7577C34.862 96.5602 35.0593 96.4109 35.2873 96.3303C35.471 96.2659 35.6681 96.2492 35.8599 96.282C36.0518 96.3147 36.2322 96.3958 36.3841 96.5176C36.5827 96.6803 36.7179 96.9074 36.7662 97.1596C36.79 97.2497 36.79 97.3446 36.7662 97.4347Z" fill="#263238"/>
<path d="M27.1056 35.9322C27.2996 35.2361 27.6304 34.5856 28.0785 34.0188C28.5266 33.4519 29.0832 32.9799 29.7156 32.6304C31.1474 31.9106 32.7855 31.7133 34.3473 32.0725C35.8932 32.433 37.3699 33.0436 38.719 33.8801C39.51 34.2877 40.2177 34.8398 40.8055 35.508C41.8144 36.7767 41.952 38.5078 42.0513 40.1243C42.1277 41.4351 42.1965 42.7993 41.6424 43.9955C41.3833 44.5402 41.0054 45.02 40.5365 45.3995C40.0677 45.7791 39.5197 46.0489 38.933 46.189" fill="#263238"/>
<path d="M41.3176 42.4937C42.0774 41.6155 42.6532 40.5938 43.0109 39.489C43.3687 38.3843 43.5011 37.219 43.4003 36.0621C43.3277 35.2979 43.1137 34.4648 42.5175 33.9642C42.2118 33.7081 41.8335 33.5553 41.5201 33.3069C40.9545 32.8559 40.6756 32.1222 40.1406 31.6369C39.8634 31.3871 39.5274 31.2119 39.1639 31.1276C38.8005 31.0434 38.4216 31.0529 38.0628 31.1553C37.704 31.2577 37.3772 31.4496 37.113 31.713C36.8487 31.9764 36.6558 32.3026 36.5522 32.6611C36.2694 33.6432 36.6936 34.675 37.1063 35.6112L39.0171 39.9447C39.2302 40.497 39.528 41.0127 39.8998 41.4733C40.0872 41.7043 40.3254 41.889 40.5958 42.013C40.8663 42.1369 41.1616 42.1968 41.459 42.1879" fill="#263238"/>
<path d="M27.7629 34.9539C26.6157 36.1966 25.9257 37.7927 25.8062 39.4798C25.6867 41.1668 26.145 42.8442 27.1056 44.2362C27.9122 40.6836 29.0272 37.2082 30.4379 33.8495" fill="#263238"/>
<path d="M26.3833 39.7918C26.5515 37.2162 28.2673 34.0597 30.8353 34.3348L36.7739 35.8634C37.686 36.0982 38.4991 36.6188 39.0939 37.3491C39.6887 38.0794 40.0341 38.981 40.0794 39.9218C40.0794 40.0211 40.0794 39.8988 40.0794 39.9753L39.6973 54.5159L34.1715 60.7525L30.3806 54.921C30.3806 53.6676 30.3806 52.6663 30.3806 52.674C30.3806 52.6816 27.0865 52.1046 26.4177 47.8093C26.0853 45.6731 26.1999 42.6541 26.3833 39.7918Z" fill="#9D6054"/>
<path d="M32.2875 38.4467C31.8866 38.5913 31.4671 38.6775 31.0417 38.7028C30.6196 38.7627 30.1912 38.7627 29.7691 38.7028C29.7691 38.6722 30.3385 38.6722 31.0302 38.5996C31.7219 38.527 32.2798 38.4162 32.2875 38.4467Z" fill="#724A44"/>
<path d="M31.3283 38.2939C30.8241 38.4653 30.2833 38.4996 29.7615 38.3933C30.0148 38.3593 30.2703 38.344 30.5258 38.3474C30.7915 38.3088 31.0598 38.2909 31.3283 38.2939Z" fill="#724A44"/>
<path d="M33.1167 46.8005C33.0862 46.8005 33.048 46.6285 32.876 46.5177C32.704 46.4069 32.5321 46.4336 32.5244 46.4069C32.5168 46.3801 32.5588 46.3648 32.6391 46.3534C32.7432 46.3423 32.8477 46.3695 32.9333 46.4298C33.0214 46.488 33.0874 46.5741 33.1206 46.6744C33.1397 46.747 33.1282 46.8005 33.1167 46.8005Z" fill="#724A44"/>
<path d="M27.9731 43.128C27.9709 43.2714 28.0249 43.4099 28.1234 43.5141C28.2219 43.6183 28.3572 43.68 28.5004 43.6859C28.5706 43.6916 28.6413 43.6832 28.7082 43.6612C28.7751 43.6392 28.8369 43.604 28.8899 43.5577C28.943 43.5114 28.9863 43.4549 29.0172 43.3916C29.0481 43.3283 29.066 43.2595 29.0698 43.1891C29.0719 43.0461 29.0179 42.908 28.9193 42.8044C28.8207 42.7008 28.6854 42.64 28.5425 42.635C28.4725 42.6288 28.4019 42.6367 28.335 42.6582C28.2681 42.6798 28.2063 42.7147 28.1531 42.7607C28.1 42.8067 28.0567 42.8629 28.0257 42.926C27.9948 42.9891 27.9769 43.0578 27.9731 43.128Z" fill="#263238"/>
<path d="M27.14 41.6148C27.2088 41.6874 27.6253 41.3778 28.2176 41.3817C28.81 41.3855 29.2456 41.6797 29.3106 41.6109C29.3755 41.5422 29.2724 41.4466 29.0851 41.3091C28.828 41.1313 28.5226 41.0366 28.21 41.0377C27.9016 41.0366 27.6006 41.1329 27.3502 41.3129C27.1706 41.4504 27.1056 41.5804 27.14 41.6148Z" fill="#263238"/>
<path d="M33.4989 43.128C33.4968 43.2713 33.5507 43.4099 33.6492 43.5141C33.7477 43.6183 33.883 43.6799 34.0262 43.6859C34.0963 43.6911 34.1668 43.6823 34.2334 43.6601C34.3001 43.6379 34.3617 43.6026 34.4147 43.5564C34.4677 43.5102 34.5109 43.454 34.542 43.3909C34.573 43.3279 34.5913 43.2593 34.5956 43.1891C34.5977 43.0461 34.5437 42.908 34.4451 42.8044C34.3465 42.7008 34.2112 42.64 34.0683 42.635C33.9982 42.6282 33.9274 42.6357 33.8603 42.6571C33.7932 42.6785 33.7311 42.7133 33.6779 42.7594C33.6246 42.8055 33.5813 42.8619 33.5505 42.9253C33.5197 42.9887 33.5022 43.0576 33.4989 43.128Z" fill="#263238"/>
<path d="M32.9639 41.737C33.0327 41.8096 33.453 41.5039 34.0454 41.5039C34.6377 41.5039 35.0695 41.8057 35.1345 41.7331C35.1994 41.6605 35.1001 41.5726 34.909 41.4312C34.6519 41.2535 34.3465 41.1588 34.0339 41.1599C33.7269 41.1603 33.4276 41.2565 33.1779 41.4351C32.9945 41.5765 32.9333 41.7064 32.9639 41.737Z" fill="#263238"/>
<path d="M30.8048 46.1278C30.4928 46.0277 30.169 45.9686 29.8418 45.952C29.6927 45.952 29.5475 45.9062 29.5246 45.803C29.5112 45.6473 29.5459 45.4913 29.6239 45.3559C29.7692 44.9738 29.9182 44.5916 30.0749 44.2095C30.7016 42.5701 31.1525 41.2249 31.0876 41.1982C31.0226 41.1714 30.4608 42.4822 29.8341 44.1216C29.6851 44.5266 29.5399 44.9126 29.4061 45.268C29.3088 45.4507 29.2803 45.6622 29.3259 45.8642C29.3479 45.9174 29.3816 45.9651 29.4247 46.0035C29.4677 46.0418 29.5188 46.07 29.5743 46.0858C29.658 46.1073 29.7439 46.1188 29.8303 46.1202C30.1534 46.1649 30.481 46.1675 30.8048 46.1278Z" fill="#263238"/>
<path d="M36.0746 51.1301C36.0746 51.1301 34.6797 54.0803 30.3806 53.6676V52.6587C32.3836 52.6873 34.3551 52.1581 36.0746 51.1301Z" fill="#724A44"/>
<path d="M31.0532 47.5647C31.1673 47.4247 31.3154 47.3161 31.4832 47.2493C31.651 47.1824 31.8332 47.1594 32.0123 47.1826C32.1447 47.1968 32.2726 47.238 32.3883 47.3037C32.504 47.3695 32.605 47.4583 32.6849 47.5647C32.7636 47.6633 32.8098 47.7837 32.8174 47.9096C32.8249 48.0355 32.7933 48.1606 32.727 48.2679C32.6333 48.3726 32.5106 48.4471 32.3745 48.4818C32.2384 48.5165 32.095 48.5099 31.9627 48.4628C31.681 48.3636 31.4213 48.2105 31.1984 48.0118C31.132 47.9641 31.075 47.9045 31.0302 47.836C31.0087 47.8031 30.9972 47.7646 30.9972 47.7252C30.9972 47.6858 31.0087 47.6473 31.0302 47.6144" fill="#724A44"/>
<path d="M32.5473 46.5406C32.4518 46.5406 32.448 47.1788 31.8977 47.6335C31.3474 48.0883 30.6634 48.0157 30.6557 48.1074C30.6481 48.1991 30.8086 48.2335 31.099 48.2411C31.4758 48.2476 31.8428 48.1204 32.1346 47.8819C32.4149 47.6545 32.5958 47.327 32.6391 46.9686C32.6658 46.6973 32.5932 46.5368 32.5473 46.5406Z" fill="#263238"/>
<path d="M32.8187 40.0021C32.876 40.1626 33.4683 40.09 34.1638 40.174C34.8593 40.2581 35.4211 40.4492 35.5128 40.304C35.5548 40.2352 35.4593 40.0861 35.23 39.9218C34.9286 39.7284 34.5869 39.6069 34.2311 39.5665C33.8753 39.526 33.515 39.5679 33.1779 39.6887C32.9257 39.7995 32.8187 39.9218 32.8187 40.0021Z" fill="#263238"/>
<path d="M27.3616 39.8988C27.4648 40.0326 27.8737 39.8988 28.3667 39.8988C28.8596 39.8988 29.2724 39.9906 29.3679 39.8492C29.4099 39.7804 29.345 39.6466 29.1654 39.5205C28.9223 39.3655 28.6383 39.2871 28.3501 39.2953C28.0619 39.3034 27.7828 39.3979 27.5489 39.5664C27.3731 39.6963 27.3158 39.8339 27.3616 39.8988Z" fill="#263238"/>
<path d="M27.5527 35.8672C27.7039 35.5522 27.9399 35.2856 28.2342 35.0973C28.5285 34.909 28.8695 34.8064 29.2189 34.801C29.922 34.7968 30.6111 34.9973 31.2022 35.3781C33.7587 36.857 35.1956 39.7919 37.7216 41.3204C38.3739 41.6426 38.9901 42.0333 39.5597 42.486C40.0871 42.9828 40.431 43.7815 40.1368 44.4464C40.4988 43.9965 40.7947 43.4972 41.0157 42.9637C41.1237 42.6956 41.1731 42.4076 41.1606 42.1189C41.148 41.8302 41.0739 41.5475 40.9431 41.2899C40.7253 40.9077 40.3393 40.6211 40.2323 40.1969C40.1253 39.7727 40.2858 39.4326 40.2705 39.0505C40.232 38.6609 40.101 38.2862 39.8884 37.9576C38.9384 36.1707 37.5195 34.6765 35.7841 33.6355C34.6393 32.9762 33.3371 32.6394 32.0162 32.661C30.6883 32.6926 29.4154 33.1982 28.4278 34.0864C27.8661 34.6138 27.2814 35.1564 27.5642 35.871" fill="#263238"/>
<path d="M40.1062 44.4579C40.1062 44.4579 40.1559 44.4006 40.2399 44.2821C40.3621 44.1128 40.4551 43.9242 40.5151 43.7242C40.7138 42.9701 40.6295 42.1694 40.2782 41.4733C40.0871 41.0262 39.8119 40.5638 39.5139 40.0556C39.2199 39.5117 38.9571 38.9516 38.7266 38.3779C38.4779 37.7472 38.1762 37.1387 37.8248 36.5589C37.4378 35.9439 36.9583 35.3922 36.4032 34.9233C35.3345 34.0036 34.0289 33.4024 32.6352 33.1884C31.5008 32.9885 30.3324 33.1461 29.2915 33.6393C28.5969 33.9879 28.0329 34.5506 27.6826 35.2443C27.5925 35.4332 27.5209 35.6302 27.4686 35.8328C27.4571 35.906 27.4379 35.9777 27.4113 36.0468C27.4096 36.0291 27.4096 36.0111 27.4113 35.9933C27.4173 35.9381 27.4262 35.8833 27.4381 35.829C27.4838 35.6218 27.553 35.4205 27.6444 35.2291C27.9879 34.5169 28.554 33.936 29.2571 33.5744C30.3094 33.0608 31.4969 32.8923 32.6505 33.0929C34.0637 33.3051 35.3882 33.9117 36.472 34.8431C37.0355 35.3191 37.5216 35.8799 37.9127 36.5054C38.2666 37.0905 38.5684 37.7056 38.8145 38.3435C39.0383 38.9139 39.2935 39.4714 39.5788 40.0135C39.854 40.5218 40.1253 40.988 40.3164 41.4466C40.6695 42.1581 40.7431 42.9762 40.5227 43.7394C40.4573 43.9428 40.3564 44.133 40.2247 44.3012C40.1887 44.356 40.1491 44.4083 40.1062 44.4579Z" fill="#455A64"/>
<path d="M42.0857 42.2146C42.0807 42.174 42.0807 42.133 42.0857 42.0923C42.0857 42.0006 42.0857 41.886 42.0857 41.7408C42.0857 41.4389 42.1086 40.9994 42.0857 40.4568C42.0716 39.8225 42.0012 39.1908 41.8755 38.569C41.7374 37.8054 41.4234 37.0845 40.9584 36.4633C40.4652 35.8635 39.9134 35.3143 39.3113 34.8239C38.7649 34.3539 38.2604 33.9526 37.821 33.6355C37.3815 33.3183 37.007 33.0814 36.7471 32.9285L36.4414 32.7527C36.4046 32.7352 36.3699 32.7134 36.3382 32.6877C36.3787 32.6967 36.4174 32.7122 36.4529 32.7336C36.5255 32.768 36.6325 32.8215 36.7662 32.8941C37.1453 33.0983 37.5116 33.3255 37.863 33.5743C38.3101 33.8839 38.826 34.2813 39.3725 34.7475C39.984 35.2393 40.5436 35.7925 41.0424 36.3984C41.5159 37.0317 41.834 37.7673 41.9711 38.546C42.0938 39.1756 42.1565 39.8154 42.1583 40.4568C42.1583 41.0032 42.1583 41.4427 42.1163 41.7484C42.1163 41.9013 42.0933 42.0159 42.0857 42.0962C42.09 42.1355 42.09 42.1753 42.0857 42.2146Z" fill="#455A64"/>
<path d="M40.2017 31.8318C40.2635 31.9873 40.3034 32.1506 40.3202 32.3171C40.3818 32.7178 40.401 33.1238 40.3775 33.5285C40.3533 33.9321 40.2854 34.3319 40.175 34.7208C40.1391 34.8851 40.0799 35.0434 39.9992 35.1908C40.1265 34.6408 40.2171 34.0829 40.2705 33.5209C40.2864 32.9569 40.2634 32.3926 40.2017 31.8318Z" fill="#455A64"/>
<path d="M43.2207 35.0112C43.2005 35.1405 43.1508 35.2634 43.0755 35.3704C42.9183 35.6419 42.7061 35.8775 42.4526 36.0621C42.1989 36.2462 41.9101 36.3762 41.6042 36.4443C41.4807 36.4828 41.3504 36.4945 41.222 36.4787C41.3467 36.4338 41.4744 36.398 41.6042 36.3717C42.1857 36.1951 42.6898 35.8258 43.0334 35.3246C43.0904 35.217 43.1529 35.1124 43.2207 35.0112Z" fill="#455A64"/>
<path d="M43.4347 37.9003C43.1661 38.0203 42.8722 38.0728 42.5787 38.0532C42.2847 38.0569 41.9944 37.9873 41.7341 37.8506C41.7341 37.8162 42.1163 37.9309 42.5825 37.95C43.0487 37.9691 43.427 37.8659 43.4347 37.9003Z" fill="#455A64"/>
<path d="M41.566 45.4056C41.4666 45.3521 41.5163 45.0693 41.5278 44.6069C41.5441 44.349 41.5143 44.0902 41.4399 43.8427C41.4178 43.7833 41.3909 43.7258 41.3596 43.6707C41.3453 43.6438 41.3287 43.6182 41.3099 43.5943L41.2412 43.4949C41.1332 43.3486 41.0144 43.2106 40.8858 43.0822C40.7793 42.9682 40.6488 42.8794 40.5036 42.8223C40.4578 42.8223 40.4463 42.8223 40.4654 42.8223L40.3164 42.8529L40.1559 42.8911C39.9439 42.9436 39.7387 43.0205 39.5444 43.1204C39.4413 43.1739 39.3419 43.2312 39.2349 43.2962L39.1585 43.3497L39.0247 43.4261C38.9369 43.4748 38.8463 43.5182 38.7534 43.556C38.371 43.7126 37.9584 43.7818 37.5458 43.7586C37.2947 43.7444 37.0485 43.6835 36.8197 43.579L36.728 43.5293L36.6554 43.4873C36.6051 43.4598 36.5566 43.4292 36.5102 43.3955C36.4163 43.3304 36.3269 43.2589 36.2427 43.1815C35.9384 42.8936 35.6885 42.5532 35.5052 42.1765C35.3332 41.8364 35.2033 41.5039 35.0772 41.202C34.6248 40.1013 34.0019 39.0786 33.2314 38.1716C32.5958 37.4238 31.8735 36.7542 31.0799 36.1768C30.5651 35.7738 29.9949 35.4469 29.387 35.2062C28.959 35.0457 28.68 35.0036 28.6609 34.889C28.6418 34.7743 28.917 34.61 29.4787 34.5947C30.2456 34.6239 30.9941 34.8376 31.6608 35.2176C32.6469 35.7251 33.5429 36.3913 34.3129 37.1895C35.266 38.1733 36.0223 39.3303 36.5408 40.5982C36.6745 40.9231 36.7892 41.2173 36.9229 41.4657C37.0194 41.678 37.1483 41.8739 37.3051 42.0466C37.3375 42.0792 37.372 42.1099 37.4082 42.1383C37.4246 42.1519 37.4425 42.1635 37.4617 42.1727H37.4885C37.5431 42.2017 37.6028 42.2199 37.6643 42.2262C37.855 42.2448 38.0475 42.2239 38.2299 42.165L38.356 42.1154L38.4133 42.0886L38.5203 42.0313C38.6665 41.9528 38.8171 41.8826 38.9712 41.8211C39.2711 41.7016 39.5841 41.6182 39.9037 41.5727L40.1253 41.546H40.2323H40.3546C40.5924 41.5346 40.8284 41.5916 41.0348 41.7103C41.3078 41.8688 41.5426 42.0854 41.7227 42.3446C41.8696 42.5424 41.9975 42.7535 42.1048 42.9752C42.1277 43.0287 42.1507 43.0707 42.1736 43.1357C42.2009 43.196 42.2227 43.2587 42.2386 43.3229C42.2739 43.4372 42.2957 43.5552 42.3035 43.6745C42.3265 44.0328 42.2649 44.3914 42.1239 44.7216C41.9061 45.2719 41.6577 45.4515 41.566 45.4056Z" fill="#263238"/>
<path d="M39.4986 43.0172C39.5406 42.8949 41.7915 42.0847 41.7915 44.4655C41.822 46.7813 39.4986 46.3266 39.4986 46.2578C39.4986 46.189 39.4986 43.0172 39.4986 43.0172Z" fill="#9D6054"/>
<path d="M40.2094 45.3751C40.2094 45.3751 40.2476 45.4018 40.3164 45.4324C40.4132 45.4713 40.5214 45.4713 40.6183 45.4324C40.7672 45.3368 40.8878 45.2031 40.9678 45.0452C41.0477 44.8874 41.0841 44.711 41.073 44.5344C41.0748 44.3358 41.0344 44.1391 40.9546 43.9573C40.9315 43.8858 40.8918 43.8207 40.8386 43.7676C40.7854 43.7144 40.7204 43.6747 40.6488 43.6516C40.6022 43.6394 40.5526 43.6442 40.5092 43.6652C40.4658 43.6862 40.4313 43.7221 40.4119 43.7663C40.3813 43.8312 40.4119 43.8771 40.3813 43.8809C40.3508 43.8847 40.3317 43.8427 40.3508 43.7471C40.3615 43.6897 40.3927 43.6381 40.4387 43.6019C40.4702 43.5771 40.5064 43.5589 40.5451 43.5484C40.5839 43.5378 40.6244 43.5353 40.6641 43.5408C40.7589 43.5584 40.8477 43.5999 40.9219 43.6614C40.9962 43.723 41.0534 43.8025 41.0883 43.8924C41.1873 44.0931 41.237 44.3144 41.2335 44.5382C41.2466 44.7443 41.1985 44.9497 41.0951 45.1286C40.9918 45.3074 40.8378 45.4517 40.6527 45.5432C40.5888 45.5637 40.5212 45.5692 40.4549 45.5593C40.3886 45.5493 40.3255 45.5242 40.2705 45.4859C40.2132 45.4324 40.2017 45.3789 40.2094 45.3751Z" fill="#724A44"/>
<path d="M41.2794 42.979C41.2515 42.9244 41.2196 42.872 41.1838 42.8223C41.0778 42.6819 40.933 42.5757 40.7673 42.5166C40.505 42.4247 40.2239 42.3997 39.9495 42.444C39.5862 42.5197 39.2359 42.6484 38.9101 42.8261C38.5066 43.0452 38.0546 43.1595 37.5955 43.1586C37.0636 43.097 36.5747 42.8362 36.2274 42.4287C35.854 41.9798 35.5758 41.4598 35.4096 40.9001C35.2147 40.3345 35.0275 39.7536 34.8096 39.1613C34.4074 38.0479 33.7878 37.0256 32.9868 36.1538C32.3241 35.4513 31.4762 34.9506 30.5411 34.7093C30.1829 34.6161 29.8144 34.5686 29.4443 34.5679C29.1652 34.572 28.8873 34.6053 28.6151 34.6673C28.168 34.7781 27.9425 34.9042 27.9348 34.8889L27.9769 34.866L28.103 34.8087C28.2634 34.732 28.4311 34.6719 28.6036 34.6291C28.878 34.5558 29.1603 34.5161 29.4443 34.5106C29.8189 34.5037 30.1928 34.5461 30.5564 34.6367C31.5121 34.8702 32.3807 35.3728 33.0594 36.085C33.8753 36.9694 34.5043 38.0092 34.909 39.1422C35.1421 39.7269 35.3179 40.323 35.5051 40.8848C35.6695 41.4279 35.9396 41.9331 36.3 42.3713C36.6302 42.7623 37.0954 43.0147 37.6031 43.0783C38.0492 43.0811 38.489 42.9735 38.8833 42.765C39.2162 42.5922 39.573 42.4698 39.9419 42.4019C40.2253 42.3591 40.515 42.3907 40.7826 42.4936C40.953 42.5578 41.0988 42.6741 41.1991 42.8261C41.2265 42.8635 41.2484 42.9047 41.2641 42.9484C41.2794 42.979 41.2832 42.979 41.2794 42.979Z" fill="#455A64"/>
<path d="M40.4157 41.8326C40.3676 41.8115 40.3215 41.7859 40.2782 41.7561C40.1903 41.6988 40.0527 41.6224 39.896 41.5077C39.441 41.1711 39.0234 40.7868 38.6502 40.3613C38.1049 39.7285 37.5946 39.0664 37.1216 38.378C36.552 37.5339 35.9129 36.7388 35.2109 36.001C34.8365 35.6319 34.4225 35.3051 33.9766 35.0266C33.5597 34.7716 33.1131 34.5688 32.6467 34.4228C31.8566 34.1681 31.0254 34.0656 30.1971 34.1209C29.6378 34.1561 29.0854 34.264 28.5539 34.4419C28.3667 34.4992 28.2253 34.5642 28.1259 34.6024C28.078 34.6247 28.0281 34.6426 27.9769 34.6559C28.0203 34.625 28.0679 34.6006 28.1183 34.5833C28.2556 34.5142 28.3973 34.4542 28.5425 34.4037C29.0716 34.2068 29.6263 34.0871 30.1895 34.0483C31.0293 33.9803 31.8742 34.0764 32.6773 34.331C33.1523 34.4749 33.607 34.6791 34.0301 34.9387C34.483 35.22 34.9034 35.5506 35.2835 35.9246C35.9883 36.6667 36.6276 37.4684 37.1942 38.3206C37.6602 39.0097 38.1615 39.6743 38.6961 40.3116C39.0634 40.7332 39.4718 41.1173 39.9151 41.4581C40.0718 41.5804 40.2055 41.6606 40.2973 41.7217C40.3402 41.7548 40.3798 41.7919 40.4157 41.8326Z" fill="#455A64"/>
<path d="M40.4616 45.7839C40.5753 45.7624 40.6929 45.785 40.7905 45.8472C40.8881 45.9094 40.9584 46.0065 40.9869 46.1187C41.0154 46.2308 41.0001 46.3496 40.9441 46.4509C40.888 46.5522 40.7955 46.6283 40.6853 46.6637C40.5751 46.6991 40.4556 46.6912 40.3511 46.6415C40.2465 46.5919 40.1648 46.5042 40.1227 46.3964C40.0805 46.2887 40.081 46.1689 40.1241 46.0615C40.1672 45.954 40.2496 45.8671 40.3546 45.8183" fill="white"/>
<path d="M40.3622 45.8183C40.2649 45.8993 40.1932 46.0069 40.1559 46.1279C40.1382 46.1909 40.137 46.2573 40.1524 46.3209C40.1678 46.3844 40.1993 46.443 40.2438 46.4909C40.2975 46.5492 40.366 46.5918 40.4421 46.614C40.5182 46.6362 40.5989 46.6373 40.6756 46.617C40.7499 46.5891 40.8153 46.5417 40.8651 46.4799C40.9148 46.4181 40.947 46.344 40.9584 46.2655C40.9654 46.2007 40.9565 46.1352 40.9326 46.0746C40.9086 46.014 40.8702 45.9601 40.8208 45.9177C40.7206 45.8373 40.5976 45.7905 40.4692 45.7839C40.5028 45.7646 40.5413 45.7553 40.58 45.7572C40.6842 45.7599 40.7847 45.7961 40.8667 45.8604C40.931 45.9079 40.982 45.9712 41.0148 46.0441C41.0476 46.1171 41.061 46.1973 41.0539 46.2769C41.0474 46.3767 41.0108 46.4723 40.9491 46.551C40.8873 46.6297 40.8033 46.688 40.7079 46.7181C40.6125 46.7483 40.5102 46.7489 40.4144 46.72C40.3187 46.691 40.2339 46.6338 40.1712 46.5559C40.1195 46.4951 40.0842 46.4221 40.0689 46.3438C40.0535 46.2655 40.0584 46.1846 40.0833 46.1088C40.1137 46.0093 40.1753 45.9222 40.259 45.8604C40.3202 45.8183 40.3622 45.8145 40.3622 45.8183Z" fill="#263238"/>
<path d="M164.934 136.819C165.274 135.642 166 134.507 167.124 134.025C168.247 133.544 169.642 133.807 170.838 134.239C172.034 134.671 173.208 135.256 174.476 135.336C175.745 135.416 177.178 134.812 177.56 133.597C177.916 132.451 177.228 131.239 176.368 130.41C175.458 129.534 174.343 128.901 173.124 128.57C171.906 128.239 170.624 128.219 169.396 128.514C168.168 128.809 167.034 129.408 166.099 130.256C165.163 131.104 164.457 132.175 164.044 133.368" fill="#263238"/>
<path d="M154.876 141.916C153.015 140.147 153.107 137.067 154.035 134.675C154.964 132.283 156.993 130.437 159.259 129.225C161.47 128.064 163.915 127.419 166.411 127.338C168.907 127.258 171.389 127.743 173.67 128.759C172.553 128.807 171.464 129.128 170.5 129.694C169.536 130.261 168.726 131.055 168.14 132.007C167.12 133.704 166.891 135.76 166.05 137.549C165.099 139.568 163.411 141.146 161.333 141.958C159.255 142.77 156.944 142.756 154.876 141.916Z" fill="#455A64"/>
<path d="M153.982 131.289C151.918 128.855 151.643 124.945 151.949 121.77C152.254 118.594 152.988 115.399 152.488 112.247C152.19 110.382 151.467 108.597 151.223 106.725C150.978 104.852 151.322 102.731 152.774 101.52C154.444 100.129 157.073 100.458 158.808 101.764C160.543 103.071 161.552 105.12 162.286 107.164C163.902 111.654 164.495 116.638 163.169 121.22C161.843 125.801 158.728 129.902 154.161 131.289" fill="#455A64"/>
<path d="M152.992 151.26C152.982 151.166 152.982 151.071 152.992 150.977C152.992 150.794 152.992 150.522 152.992 150.175C153.019 149.475 153.084 148.467 153.237 147.225C153.42 145.772 153.684 144.33 154.028 142.906C154.453 141.157 155.117 139.473 156 137.904C156.882 136.335 157.965 134.887 159.221 133.597C160.243 132.543 161.376 131.603 162.599 130.792C163.115 130.437 163.616 130.166 164.044 129.917C164.472 129.669 164.869 129.497 165.19 129.344L165.935 129.034C166.016 129 166.101 128.976 166.188 128.962C166.107 129.01 166.024 129.053 165.939 129.092L165.213 129.436C164.904 129.596 164.525 129.795 164.093 130.032C163.662 130.269 163.18 130.567 162.676 130.926C159.995 132.761 157.772 135.188 156.179 138.019C154.268 141.336 153.764 144.817 153.386 147.263C153.214 148.497 153.126 149.502 153.076 150.198C153.057 150.53 153.042 150.798 153.026 151C153.021 151.087 153.009 151.174 152.992 151.26Z" fill="#263238"/>
<path d="M135.203 121.701C131.382 123.994 131.401 126.096 132.039 128.075C132.677 130.055 135.016 131.427 136.957 130.685C138.054 130.269 138.849 129.313 139.529 128.354C140.209 127.395 140.847 126.371 141.799 125.679C142.751 124.988 144.13 124.728 145.085 125.408" fill="#263238"/>
<path d="M132.349 124.208C133.346 122.828 135.811 122.431 137.366 123.119C138.921 123.807 140.06 125.171 141.081 126.531C142.101 127.892 143.094 129.332 144.52 130.28C145.945 131.228 147.909 131.568 149.316 130.616C149.766 130.281 150.142 129.858 150.423 129.373C150.703 128.887 150.882 128.349 150.948 127.792C151.071 126.68 150.995 125.554 150.722 124.468C150.386 122.867 149.835 121.197 148.555 120.18C147.13 119.034 145.147 118.992 143.328 119.053C141.237 119.122 139.124 119.278 137.156 120C135.188 120.723 133.193 122.293 132.36 124.204" fill="#455A64"/>
<path d="M149.82 148.203C149.802 148.094 149.793 147.984 149.793 147.874C149.793 147.641 149.774 147.324 149.759 146.926C149.732 146.086 149.698 144.901 149.652 143.445C149.606 141.989 149.545 140.224 149.438 138.282C149.331 136.341 149.186 134.209 148.892 131.988C148.766 130.908 148.554 129.84 148.257 128.794C147.956 127.828 147.566 126.893 147.092 126C146.308 124.475 145.27 123.093 144.023 121.915C143.172 121.131 142.212 120.474 141.172 119.966C140.89 119.823 140.601 119.696 140.305 119.584C140.199 119.548 140.097 119.503 139.999 119.45C140.107 119.475 140.213 119.507 140.316 119.546C140.62 119.639 140.916 119.754 141.203 119.89C142.266 120.372 143.249 121.017 144.115 121.8C145.39 122.977 146.451 124.366 147.252 125.905C147.737 126.807 148.136 127.752 148.444 128.729C148.747 129.784 148.962 130.863 149.086 131.954C149.385 134.186 149.522 136.322 149.621 138.267C149.721 140.212 149.763 141.962 149.793 143.434C149.824 144.905 149.832 146.109 149.835 146.919V147.867C149.84 147.979 149.835 148.091 149.82 148.203Z" fill="#263238"/>
<path d="M151.192 149.926C151.008 149.393 150.866 148.846 150.768 148.291C150.502 146.771 150.442 145.222 150.588 143.686C150.824 141.405 151.314 139.159 152.048 136.987C152.812 134.533 153.894 131.908 154.803 129.088C155.671 126.446 156.217 123.709 156.431 120.937C156.606 118.667 156.648 116.39 156.557 114.115C156.492 112.174 156.389 110.603 156.328 109.53C156.298 108.998 156.275 108.582 156.256 108.28C156.256 108.146 156.256 108.039 156.256 107.955C156.251 107.918 156.251 107.881 156.256 107.844C156.262 107.881 156.262 107.918 156.256 107.955L156.29 108.276C156.313 108.578 156.351 108.995 156.397 109.526C156.485 110.611 156.607 112.182 156.687 114.112C156.809 116.386 156.791 118.665 156.634 120.937C156.53 122.282 156.352 123.62 156.099 124.945C155.819 126.368 155.453 127.771 155.002 129.149C154.093 131.981 153.023 134.602 152.235 137.048C151.5 139.2 151.001 141.426 150.749 143.686C150.59 145.213 150.629 146.754 150.863 148.272C150.959 148.807 151.043 149.219 151.116 149.498L151.192 149.815C151.197 149.852 151.197 149.889 151.192 149.926Z" fill="#263238"/>
<path d="M160.65 151.654H142.735L142.326 148.203H160.65V151.654Z" fill="#263238"/>
<path d="M144.661 151.26L146.901 161.605H156.634L158.728 151.26H144.661Z" fill="#263238"/>
<path d="M160.65 151.654C160.65 151.707 156.714 151.741 151.861 151.726C147.008 151.711 143.072 151.657 143.072 151.604C143.072 151.55 147.008 151.516 151.861 151.527C156.714 151.539 160.65 151.596 160.65 151.654Z" fill="#455A64"/>
<path d="M157.578 156.759C157.087 156.399 156.556 156.098 155.996 155.861C155.386 155.624 154.739 155.494 154.085 155.479C153.281 155.482 152.484 155.628 151.731 155.911C150.913 156.186 150.153 156.507 149.407 156.675C148.747 156.817 148.066 156.838 147.397 156.736C146.947 156.669 146.511 156.528 146.106 156.32C145.998 156.262 145.894 156.195 145.796 156.121C145.727 156.071 145.697 156.041 145.701 156.033C146.23 156.331 146.813 156.521 147.417 156.595C148.067 156.676 148.726 156.644 149.365 156.499C150.08 156.32 150.844 155.995 151.658 155.735C152.433 155.444 153.254 155.299 154.081 155.307C154.757 155.329 155.423 155.476 156.045 155.739C156.456 155.916 156.842 156.148 157.192 156.427C157.289 156.502 157.382 156.582 157.471 156.667C157.551 156.721 157.582 156.751 157.578 156.759Z" fill="#455A64"/>
<path d="M157.44 157.447C156.962 157.101 156.45 156.806 155.912 156.564C155.324 156.325 154.697 156.195 154.062 156.182C153.286 156.185 152.517 156.323 151.788 156.591C150.997 156.855 150.26 157.16 149.549 157.355C148.921 157.535 148.267 157.608 147.615 157.569C147.175 157.541 146.744 157.424 146.35 157.225C146.245 157.168 146.144 157.103 146.048 157.03C145.987 156.981 145.953 156.954 145.957 156.946C145.961 156.939 146.11 157.03 146.385 157.156C146.779 157.321 147.2 157.413 147.627 157.428C148.26 157.445 148.892 157.361 149.499 157.179C150.191 156.981 150.925 156.675 151.723 156.415C152.474 156.139 153.269 156.002 154.07 156.01C154.728 156.027 155.377 156.173 155.98 156.438C156.382 156.615 156.757 156.845 157.096 157.122C157.191 157.194 157.281 157.273 157.364 157.359C157.42 157.415 157.445 157.444 157.44 157.447Z" fill="white"/>
<path d="M157.754 156.071C157.247 155.7 156.703 155.383 156.129 155.127C155.506 154.86 154.842 154.701 154.165 154.657C153.336 154.64 152.512 154.785 151.739 155.085C150.952 155.393 150.148 155.656 149.331 155.872C148.644 155.99 147.943 155.99 147.256 155.872C146.796 155.797 146.35 155.653 145.934 155.444C145.822 155.385 145.714 155.318 145.613 155.242C145.544 155.188 145.51 155.158 145.513 155.154C145.517 155.15 145.674 155.242 145.968 155.376C146.391 155.552 146.836 155.672 147.29 155.731C147.961 155.828 148.642 155.815 149.308 155.693C150.114 155.469 150.907 155.203 151.685 154.898C152.482 154.59 153.334 154.446 154.188 154.474C155.356 154.564 156.472 154.995 157.398 155.712C157.497 155.789 157.592 155.872 157.681 155.96C157.727 156.033 157.757 156.067 157.754 156.071Z" fill="white"/>
</svg>
